<?xml version="1.0" encoding="utf-8"?>
<!-- Generator: Adobe Illustrator 21.1.0, SVG Export Plug-In . SVG Version: 6.00 Build 0)  -->
<svg version="1.1" id="Laag_1" xmlns="http://www.w3.org/2000/svg" xmlns:xlink="http://www.w3.org/1999/xlink" x="0px" y="0px"
	 viewBox="0 0 1247 1025" style="enable-background:new 0 0 1247 1025;" xml:space="preserve">
<style type="text/css">
	.st0{fill:#FFFFFF;}
	.st1{fill:#808080;}
	.st2{fill:#030303;}
	.st3{fill:#FDFDFD;}
	.st4{fill:#FBFBFB;}
	.st5{fill:#404040;}
	.st6{fill:#606060;}
</style>
<g id="_x23_ffffffff">
	<path class="st0" d="M0,0h2.4l0.5,0.5C2.1,1.5,1.3,2.4,0.5,3.2L0,2.7V0z"/>
	<path class="st0" d="M1244.5,0h2.5v2.8l-0.7,0.2c-0.8-0.8-1.6-1.6-2.4-2.5L1244.5,0z"/>
	<path class="st0" d="M835.9,427.7c1.1,1.5,2.1,3.2,1.9,5.2c-0.1,4.7,0.1,9.4-0.1,14.1c0.2,1.6-0.8,2.8-1.9,3.8
		c-1.4-4.5-0.8-9.2-0.8-13.8C834.9,433.9,835.2,430.8,835.9,427.7z"/>
	<path class="st0" d="M629.1,434.1c0.3-1.8-0.5-4.8,1.9-5.5c1,1.2,0.7,2.9,0.9,4.4c0.2,5.8,0.2,11.6-0.2,17.3
		c-0.5-0.1-1.5-0.4-2-0.6C628.7,444.5,629.3,439.3,629.1,434.1z"/>
	<path class="st0" d="M691.7,435c0.1-2.2,0.1-4.4,0.3-6.6c3.1,0.8,2.5,4.1,2.7,6.6C693.9,435,692.4,435,691.7,435z"/>
	<path class="st0" d="M752.2,444c0.2-4.9-0.7-10,0.7-14.7c0.4-0.1,1.3-0.4,1.7-0.5c0.5,7.3,0.8,14.7-0.2,22
		C751.3,449.9,752.4,446.3,752.2,444z"/>
	<path class="st0" d="M220.9,523.7c0.5,2.4,1,4.8,1.8,7.1c-1.3,0.2-2.5,0.3-3.8,0.4C219.5,528.7,220.2,526.2,220.9,523.7z"/>
	<path class="st0" d="M1080.3,631.1c0.6-2.6,1.2-5.2,2-7.8c0.5,2.6,1,5.3,1.7,7.9C1082.8,631.1,1081.5,631.1,1080.3,631.1z"/>
	<path class="st0" d="M0,1022.5l0.5-0.5c0.8,0.7,1.6,1.5,2.4,2.3l-0.2,0.7H0V1022.5z"/>
	<path class="st0" d="M1244.2,1024.4c0.6-0.5,1.6-1.5,2.2-2l0.6,0.6v2h-2.3L1244.2,1024.4z"/>
</g>
<g id="_x23_808080ff">
	<path class="st1" d="M2.4,0h1242.1l-0.5,0.4C1239,1.3,1234,1,1229,1C825,1,421,1,17,1C12.3,1,7.6,1.3,2.9,0.5L2.4,0z"/>
	<path class="st1" d="M0,2.7l0.5,0.5C1.3,8.1,1,13.1,1,18c0,333,0,666,0,999c-0.1,1.7-0.2,3.3-0.5,5l-0.5,0.5V2.7z"/>
	<path class="st1" d="M1246.3,2.9l0.7-0.2V1023l-0.6-0.6c-0.7-4.8-0.4-9.6-0.4-14.4c0-323.7,0-647.3,0-971
		C1246.2,25.6,1245.6,14.3,1246.3,2.9z"/>
</g>
<g id="_x23_000000ff">
	<path d="M0.5,3.2c0.8-0.9,1.6-1.8,2.4-2.7C7.6,1.3,12.3,1,17,1c404,0,808,0,1212,0c5,0,10,0.3,14.9-0.6c0.8,0.8,1.6,1.7,2.4,2.5
		c-0.7,11.4-0.2,22.7-0.3,34.1c0,323.7,0,647.3,0,971c0,4.8-0.2,9.6,0.4,14.4c-0.6,0.5-1.6,1.5-2.2,2c-10.7-0.8-21.5-0.2-32.3-0.4
		c-400.6,0-801.3,0-1201.9,0c-2.4,0-4.7,0.2-7.1,0.3c-0.8-0.8-1.6-1.6-2.4-2.3c0.2-1.7,0.4-3.4,0.5-5C1,684,1,351,1,18
		C1,13.1,1.3,8.1,0.5,3.2 M6.8,6.8c0,49.6,0,99.2,0,148.8c411.2,0,822.4,0,1233.6,0c0-49.6,0-99.2,0-148.8
		C829.1,6.8,417.9,6.8,6.8,6.8 M6.8,159.9c0,27,0,54,0,81c411.2,0,822.4,0,1233.6,0c0-27,0-54,0-81
		C829.1,159.9,417.9,159.9,6.8,159.9 M6.9,247.1c0,176.9,0,353.9,0,530.9c411.1,0,822.2,0,1233.3,0c0-177,0-353.9,0-530.9
		C829.1,247.1,418,247.1,6.9,247.1 M6.8,784.2c0,26.5,0,53.1,0,79.6c411.2,0,822.4,0,1233.6,0c0-26.5,0-53.1,0-79.6
		C829.1,784.2,417.9,784.2,6.8,784.2 M6.2,865.8c45.6,0.5,91.2,0.1,136.8,0.2c365.8,0,731.6,0,1097.4,0l0-1.4
		c-410.1-0.1-820.2,0-1230.3-0.1C8.5,864.3,7.2,864.7,6.2,865.8 M6.8,868.4c0,49.7,0,99.3,0,149c411.2,0,822.4,0,1233.6,0
		c0-49.7,0-99.3,0-149C829.1,868.4,417.9,868.4,6.8,868.4z"/>
	<path d="M116.2,57.2c12.6-3.6,26.6,6,28.1,18.9c2,11.9-7.2,24.2-19.2,25.7c-8.9,1.5-18.4-3.1-22.9-10.9c-3.1-5-3.9-11.1-2.7-16.8
		C101.5,66,108.1,59.2,116.2,57.2 M115.4,60.6c-8.7,2.9-14.7,12.3-13.2,21.4c1.3,10.2,11.6,18.2,21.9,16.7
		c11.1-1.1,19.6-13,16.8-23.8C138.7,64,126,56.7,115.4,60.6z"/>
	<path d="M175.2,57.2c13-3.7,27.3,6.5,28.2,19.9c1.6,12.8-9.6,25.2-22.5,24.9c-12.3,0.5-23.5-10.8-23-23.1
		C158,68.9,165.5,59.5,175.2,57.2 M174.4,60.7c-8.7,2.9-14.6,12.4-13.1,21.5c1.3,10.2,11.6,18.2,21.8,16.7
		c10.7-1.1,19.1-12.1,17.1-22.7C198.6,64.5,185.4,56.5,174.4,60.7z"/>
	<path d="M234.2,57.2c13-3.8,27.4,6.5,28.3,19.9c1.6,12.8-9.6,25.2-22.5,24.9c-11.5,0.4-22.2-9.4-22.9-20.9
		C216,70.4,223.8,59.7,234.2,57.2 M233.4,60.7c-7.3,2.5-12.8,9.5-13.2,17.2c-0.7,7.8,3.9,15.5,10.8,18.9c6.8,3.5,15.5,2.5,21.3-2.5
		c6.6-5.4,9.1-15.2,5.5-23C254,62.2,242.8,57.2,233.4,60.7z"/>
	<path d="M293.2,57.2c12.6-3.7,26.8,5.9,28.2,18.9c2.1,12-7.3,24.3-19.3,25.8c-9,1.5-18.4-3.2-22.9-11.1c-3.9-6.5-4.2-15.1-0.6-21.9
		C281.5,63.1,287,58.9,293.2,57.2 M294.1,60.2c-8.1,2-14.5,9.5-14.9,17.8c-0.6,7.5,3.7,15.1,10.4,18.6c6.4,3.6,14.8,3,20.6-1.3
		c7-4.8,10.2-14.4,7.2-22.4C314.4,63.5,303.7,57.5,294.1,60.2z"/>
	<path d="M352.2,57.2c12.6-3.7,26.8,5.9,28.2,18.9c2,11.6-6.8,23.6-18.3,25.6c-9.2,1.9-19.2-2.8-23.8-10.9c-4-6.6-4.2-15.3-0.5-22.1
		C340.7,63,346.1,58.8,352.2,57.2 M353.2,60.2c-8.1,1.9-14.5,9.4-14.9,17.8c-0.6,7.5,3.7,15.1,10.3,18.6c6.6,3.7,15.4,3,21.3-1.8
		c6.7-5,9.5-14.5,6.4-22.3C373.1,63.3,362.6,57.6,353.2,60.2z"/>
	<path d="M411.2,57.2c12.9-3.8,27.3,6.3,28.4,19.6c1.6,12.2-8.4,24.3-20.6,25.1c-11.8,1.4-23.5-8-24.7-19.8
		C392.7,71.1,400.5,59.9,411.2,57.2 M412.2,60.2c-8,2-14.4,9.4-14.9,17.7c-0.6,7.5,3.6,15.1,10.3,18.7c6.9,3.9,16,2.9,21.9-2.2
		c6.5-5.3,9-14.9,5.6-22.6C431.6,63,421.3,57.7,412.2,60.2z"/>
	<path d="M529.2,57.2C541.8,53.5,556,63,557.6,76c2,11.7-6.8,23.8-18.4,25.7c-8.8,1.8-18.2-2.4-23.1-9.8c-4.7-6.9-5.1-16.4-0.9-23.6
		C518.1,62.8,523.3,58.8,529.2,57.2 M530.1,60.2c-7.7,2-13.9,9-14.7,16.9c-1,7.5,3,15.2,9.4,19c6.3,3.9,14.8,3.8,20.9-0.4
		c7.5-4.8,11.1-15,7.6-23.4C550.1,63.2,539.5,57.6,530.1,60.2z"/>
	<path d="M647.2,57.2c13-3.9,27.5,6.2,28.5,19.7c1.6,12.2-8.4,24.3-20.6,25c-11.5,1.4-22.8-7.6-24.5-19
		C628.5,71.8,636.2,60,647.2,57.2 M648.2,60.2c-7.7,2-13.9,9-14.7,16.9c-1,7.7,3.3,15.6,10.1,19.3c6.4,3.7,14.8,3.2,20.8-1.2
		c7-4.8,10.2-14.3,7.4-22.2C668.7,63.6,657.9,57.5,648.2,60.2z"/>
	<path d="M765.2,57.3c13-4,27.6,6.2,28.6,19.6c1.7,12.5-9,24.9-21.6,25.1c-11.9,0.8-23.1-9.2-23.7-21
		C747.4,70.4,754.9,60,765.2,57.3 M766.2,60.2c-7.7,2-13.7,8.9-14.6,16.8c-1,7.7,3.2,15.7,10,19.4c6.1,3.5,14.2,3.3,20.1-0.7
		c7.2-4.5,10.8-13.8,8.4-21.9C787.4,63.9,776.1,57.3,766.2,60.2z"/>
	<path d="M884.1,57.1c12.8-3.4,26.8,6.7,27.8,19.8c1.7,12.6-9.1,25-21.8,25.1c-12.9,0.9-24.6-11.1-23.6-24
		C866.8,68.2,874.5,59.2,884.1,57.1 M884.2,60.2c-7.7,2-13.8,8.9-14.6,16.8c-1,7.7,3.2,15.6,9.9,19.3c6.2,3.6,14.3,3.4,20.3-0.6
		c7.4-4.6,11-14.4,8.1-22.6C904.9,63.6,894,57.4,884.2,60.2z"/>
	<path d="M1000.4,57.5c12.8-4.5,27.7,5,29.4,18.3c2.3,12.6-8,25.4-20.7,26.1c-11.8,1.3-23.3-8.3-24.4-20
		C983.2,71.4,990.3,60.7,1000.4,57.5 M1001.4,60.5c-7.2,2.3-12.9,9-13.7,16.6c-1,7.9,3.4,16,10.4,19.6c6.5,3.6,15,2.9,20.9-1.7
		c7-5,9.9-14.9,6.6-22.9C1022.1,62.8,1010.9,57.2,1001.4,60.5z"/>
	<path d="M1118.4,57.6c12.8-4.6,27.9,4.9,29.5,18.3c2.1,11.8-6.9,24-18.7,25.8c-8.8,1.7-18.2-2.6-22.9-10.1
		c-4.6-6.8-4.9-16.1-0.9-23.3C1108.1,63.3,1112.9,59.4,1118.4,57.6 M1119.3,60.5c-7.5,2.4-13.2,9.6-13.6,17.5
		c-0.6,7.5,3.8,15.1,10.5,18.6c5.6,3.1,12.8,3.1,18.4-0.1c5.7-3,9.8-9,10.3-15.5c0.8-7.3-3.1-14.8-9.4-18.6
		C1130.8,59.5,1124.7,58.8,1119.3,60.5z"/>
	<path d="M27.2,264.3c396.9-0.2,793.9,0,1190.8-0.1c1.8-0.3,4,0.4,3.3,2.7c0,161.7,0,323.4,0,485.1c-0.2,2.9,0.4,5.9-0.5,8.7
		c-22,0.5-43.9,0.1-65.9,0.2c-375.4,0-750.7,0-1126,0c-2,0.4-3.8-0.5-3.3-2.8c0-129.7,0-259.4,0-389.1c0.1-34.7-0.2-69.4,0.2-104
		C26.2,264.8,26.9,264.5,27.2,264.3 M28.8,267.4c0,163.4,0,326.9,0,490.4c396.5,0,793,0,1189.4,0c0-163.5,0-326.9,0-490.4
		C821.8,267.4,425.3,267.4,28.8,267.4z"/>
	<path d="M78.2,309.3c73.3-0.3,146.6-0.1,219.8-0.1c10.8-0.5,21.2,6.8,24.7,17c1.8,4.8,1.3,9.9,1.3,14.9c0,118,0,236,0,354.1
		c0,4,0.3,8-0.9,11.9c-2.8,10.6-13.1,18.8-24.2,18.6c-70.3,0-140.6,0-210.9,0c-6.1,0-12.5,0.5-18.2-2.3
		c-8.8-4.1-14.9-13.5-14.6-23.2c0-121.7,0-243.3,0-365C54.7,322.2,65.4,310.1,78.2,309.3 M79.3,312.3c-11.6,0.3-21.5,11.1-20.9,22.6
		c0,121.7,0,243.4,0,365.1c-0.4,11.7,10,22.4,21.7,22.3c73,0,146,0,218.9,0c11.8,0.2,22.3-10.5,21.9-22.3c0-121.7,0-243.4,0-365.1
		c0.6-11.9-10-22.9-21.9-22.7C225.8,312.3,152.5,312.2,79.3,312.3z"/>
	<path d="M92.5,327.7c9.2-3.1,20.2,2.2,23.5,11.3c2.7,6.7,1.2,14.9-3.8,20.2c-5.1,5.5-13.5,7.6-20.5,5c-6.9-2.3-12-8.9-12.7-16.1
		C77.9,339.2,83.9,330.2,92.5,327.7 M93.4,330.7c-7,2-11.9,9.1-11.4,16.3c0.3,8.6,8.3,15.8,16.9,15.1c9.1-0.2,16.7-9.2,15.1-18.2
		C113.2,334.4,102.5,327.6,93.4,330.7z"/>
	<path d="M135.5,343.5c-2.4-2.7-1.1-7.6,2.5-8.4c2.7-1,7.8-0.6,7.7,3.2c-2.6-0.8-6.3-2.8-8.4,0c-1.7,4.3,3.7,5.3,6.4,7
		c4.7,2.1,3.3,9.7-1.5,10.6c-3.1,0.6-8.8,0.7-8.5-3.8c2.3,1,4.7,2.3,7.4,1.8c2.5-0.3,4.1-4,2-5.7
		C140.7,346.2,137.5,345.7,135.5,343.5z"/>
	<path d="M172.1,334.9c0.8,0,2.4,0,3.2,0c2.6,7,5.1,14,7.6,21c-0.7,0-2.1,0.1-2.8,0.2c-0.7-1.9-1.3-3.7-2-5.6c-3,0-6,0-9,0
		c-1.1,2.3-0.9,6.4-4.5,5.8C166.7,349,169.6,342,172.1,334.9 M173.5,337.4c-1.3,3.7-2.5,7.3-3.8,11c2.6,0,5.1,0,7.7,0
		C176.1,344.7,174.9,341,173.5,337.4z"/>
	<path d="M183.9,334.9c5.2,0,10.4,0,15.5,0c0,0.7,0,1.5,0.1,2.2c-2.2,0-4.3,0-6.4,0c-0.1,6.3,0.1,12.6-0.1,18.9c-0.6,0-1.9,0-2.6,0
		c0-6.3,0-12.6,0-18.9c-2.2,0-4.3,0-6.5,0C183.9,336.6,183.9,335.5,183.9,334.9z"/>
	<path d="M202.4,334.9c0.7,0,2,0,2.7,0c0.2,5.2-0.3,10.4,0.2,15.6c1.1,4.9,9.6,4.6,10.1-0.5c0.3-5,0-10,0.1-15.1c0.7,0,2,0,2.7-0.1
		c-0.2,5.4,0.4,10.8-0.3,16.1c-1.3,5.1-7.8,6.5-12,4.2c-2.2-1.2-3.3-3.8-3.4-6.2C202.3,344.3,202.4,339.6,202.4,334.9z"/>
	<path d="M222.8,340c-0.6-6,10.7-7.8,11.5-1.8c-2.3-0.5-4.8-2.4-7.2-1.1c-1.7,0.5-1.7,2.5-1.4,3.9c2.1,2.9,6.3,3.1,8.5,5.9
		c2.5,3.4,0,8.6-4.1,9.1c-3,0.4-8,0.3-8-3.8c2.3,0.7,4.6,2.1,7.1,1.7c2.9-0.1,4.5-4.3,2-6C228.1,345.7,222.5,344.8,222.8,340z"/>
	<path d="M430.6,377.6c2.1-1.5,4.9-0.5,6.6,1.1c11.2,9.4,22.6,18.8,33.8,28.3c2.7,2,1.9,6.6-1.1,7.9c-2.5,1.2-5-0.4-6.9-1.9
		c-10-8.3-19.9-16.6-29.8-24.9c-10.6,8.7-20.9,17.7-31.7,26.2c-3.5,3.1-9.2-0.9-7.7-5.3c2.3-4,6.9-5.9,9.7-9.3
		c0.5-5.5-0.4-11.1,0.4-16.6c0.8-3.7,6.5-4.7,8.5-1.5c1.7,3.1,0.9,6.9,1,10.3C419.1,387.1,424.7,382.1,430.6,377.6z"/>
	<path d="M400,416.6c3.3,0,6.5,0,9.8,0c0,8.5,0,17,0.2,25.5c-0.2,4.4,3.7,8.3,8,8.3c10.3,0,20.7,0.1,31,0c4.3,0.1,8-4,7.8-8.3
		c0.1-8.4,0-16.8,0-25.2c3.2,0,6.5-0.1,9.7,0.1c0.2,8.6,0,17.2,0,25.9c-0.1,9.1-8.3,17.2-17.5,17.2c-10.3,0-20.7,0-31,0
		c-10.5,0.4-19.2-9.8-18-20.1C400,432.2,400,424.4,400,416.6z"/>
	<path d="M719.1,419.1c4.7-4,12.3-3.8,17.2-0.3c4.3,3.6,3.2,9.8,3.5,14.8c-3.4,0-6.8,0-10.2,0c0-3.9,0.6-7.9-1-11.5
		c-1,0.7-2.7,1.2-2.4,2.8c-0.2,8.1-0.4,16.2,0.1,24.3c0.7,0.1,2.2,0.2,2.9,0.3c0.4-3.2,0.5-6.4,0.5-9.6c3.4,0,6.7,0,10.1,0
		c-0.3,4.6,0.5,10.3-3.6,13.5c-5,3.9-13.2,3.7-17.8-0.8c-3.7-5.1-2-11.8-2.5-17.6C716.1,429.7,714.7,423.1,719.1,419.1z"/>
	<path d="M427.4,417.6c4.2-0.4,8.5-0.6,12.6,0.3c2.8,1.1,2.8,4.5,2.8,7c-0.1,3.2,0.6,6.8-1.1,9.7c-2.1,2.6-5.8,1.7-8.7,2
		c-3.1-0.1-7.5,0.6-9.1-2.8c-1-3.9-0.7-7.9-0.5-11.8C423.5,420,425.2,417.9,427.4,417.6z"/>
	<path d="M478.2,417c3.4,0,6.7,0,10.1,0c0,10.2,0,20.3,0,30.5c2,0,4.1,0,6.1,0c0,2.6,0,5.2,0,7.8c-5.4,0-10.8,0-16.1,0
		C478.2,442.5,478.1,429.8,478.2,417z"/>
	<path d="M546.6,417c3.3,0,6.6,0,9.9,0c0,1.7,0,3.3,0,5c-3.3,0-6.6,0-9.9,0C546.6,420.3,546.6,418.7,546.6,417z"/>
	<path d="M593,416.9c3.3,0,6.7,0,10,0c0,4.6,0,9.2,0,13.8c0.8,0,2.2,0,3,0c0-4.6,0-9.2,0-13.8c3.4,0,6.8,0,10.1,0
		c0,12.8,0,25.6,0,38.4c-3.4,0-6.8,0-10.1,0c0-5.4,0-10.8,0-16.1c-0.8,0-2.2,0-3,0c0,5.4,0,10.8,0,16.1c-3.3,0-6.7,0-10,0
		C593,442.5,593,429.7,593,416.9z"/>
	<path d="M850.6,417c3.3,0,6.6,0,9.9,0c0,12.8,0,25.6,0,38.4c-3.3,0-6.6,0-9.9,0C850.6,442.6,850.6,429.8,850.6,417z"/>
	<path d="M794.1,419.6c3.1,0,6.2,0,9.4,0c0,1.6,0,3.2,0,4.8c0.7,0.1,2,0.2,2.6,0.2c0,1.6,0,3.3,0,4.9c-0.6,0.1-1.9,0.2-2.5,0.2
		c0.2,6.5-0.2,13.1,0.2,19.6c0.9,0.4,1.8,0.8,2.7,1.1c0,1.6,0,3.1,0,4.7c-4-0.2-9.4,1.2-11.9-2.8c-1.6-7.4-0.2-15.1-0.8-22.6
		c-0.5-0.2-1.5-0.6-2-0.7c0-1.2,0-2.4,0-3.6C794.1,424.4,793.9,421.8,794.1,419.6z"/>
	<path d="M503.4,423.6c5-1.2,11.7,0.1,13.9,5.4c1.4,5.9,0.8,12,0.6,18c-0.2,4.3-3.5,8-7.8,8.5c-5,0.9-12.3,0-13.6-5.9
		c-1-5.8-0.7-11.8-0.3-17.7C496.4,427.9,499.5,424.3,503.4,423.6 M506.2,429.5c-1,7-0.3,14.1-0.2,21.1c0.5-0.3,1.5-0.8,2-1.1
		c1-7,0.4-14.1,0.2-21.2C507.7,428.7,506.7,429.2,506.2,429.5z"/>
	<path d="M524.7,423.7c3-1.3,6.2,0.3,8.8,1.8l1-1.5c2.9-0.4,5.8-0.1,8.7-0.1c0,9.7,0,19.4-0.1,29.1c0,3.7-3.4,6.5-6.8,7.2
		c-4.2,0.8-8.9,0.8-12.8-1.3c-1.8-1.4-2.1-3.9-2.9-5.9c3,0,6,0,8.9,0c1.1,1,2.2,1.8,3.6,2.4c0.3-1.8,0.6-3.6,0.9-5.4
		c-2.7,0.9-5.6,2.4-8.5,1.4c-2.4-0.7-4.1-2.9-4.2-5.3c-0.4-5-0.3-10.1-0.1-15.1C521.1,428.2,521.8,424.8,524.7,423.7 M531.2,429.5
		c-1.1,5.5-0.4,11.2-0.2,16.9c0.6-0.2,1.7-0.7,2.3-1c0.7-5.7,0.5-11.4,0.1-17.1C532.8,428.6,531.7,429.2,531.2,429.5z"/>
	<path d="M560.6,428.4c3.5-6.3,13.1-6.6,18.2-2.1c2.4,2.5,2.2,6.2,2.7,9.4c-3.1,0-6.2,0-9.2,0c-0.2-2.7,0.8-6.3-2.5-7.4
		c-0.3,6.2-0.7,12.5-0.2,18.7c0.1,1.5,0.7,2.9,1.7,4c1.6-2.6,1.4-5.7,1.5-8.6c2.9,0,5.7,0,8.6,0c-0.4,3.5,0.1,7.6-2.7,10.3
		c-3.6,3.9-9.8,3.9-14.4,1.9c-4-1.9-4.7-6.9-4.7-10.8C559.7,438.8,559.1,433.4,560.6,428.4z"/>
	<path d="M653.9,426.3c1.9-1.2,3.7-3.1,6.1-3.1c2.5-0.2,4.4,1.6,6.3,2.9c1.8-1.1,3.4-2.8,5.6-2.9c3.3-0.6,7,2.1,6.9,5.6
		c0.5,8.8,0.2,17.6,0.2,26.4c-3.1,0-6.2,0-9.4,0c-0.3-8.8,0.7-17.6-0.6-26.4c-2.6-0.8-2.2,2.4-2.4,4.1c-0.1,7.5,0,14.9,0,22.4
		c-3.1,0-6.2,0-9.3,0c-0.2-8.9,0.5-17.9-0.5-26.8c-0.8,0.6-2.6,0.8-2.3,2.2c-0.1,8.2-0.2,16.4-0.2,24.5c-3.1,0-6.2,0-9.4,0
		c-0.1-10.5-0.3-21-0.2-31.5c3.2,0,6.4,0,9.6,0C654.2,424.5,654,425.7,653.9,426.3z"/>
	<path d="M685.4,425.6c4.6-3.5,11.8-3.1,16.1,0.8c3.3,3.8,2.6,9.1,2.8,13.7c-4.2,0-8.4,0-12.5,0c0,3.4,0,6.9,0.4,10.3
		c4.3,0,2.4-5.5,3-8.3c3.1,0,6.1,0,9.2,0c-0.1,4.2-0.2,9.4-4.2,11.9c-4.8,2.6-11.5,2.4-15.6-1.6c-3.4-3.6-2.1-9-2.6-13.5
		C682.3,434.5,681.3,428.8,685.4,425.6 M691.7,435c0.7,0,2.2,0,3,0c-0.2-2.4,0.4-5.8-2.7-6.6C691.8,430.6,691.7,432.8,691.7,435z"/>
	<path d="M749.5,423.8c5.3-1.5,12.9,0,14.6,6c1.1,5.7,0.6,11.5,0.5,17.3c-0.1,4.5-4,8.4-8.4,8.6c-4.7,0.8-11.5-0.2-12.8-5.7
		c-1.1-6.3-0.9-12.8-0.2-19.1C743.4,427.4,746.2,424.5,749.5,423.8 M752.2,444c0.2,2.3-0.9,5.9,2.2,6.7c1-7.3,0.7-14.7,0.2-22
		c-0.4,0.1-1.3,0.4-1.7,0.5C751.5,434,752.5,439,752.2,444z"/>
	<path d="M777.3,426c2.3-1.5,4.8-3.5,7.8-2.8c3.2,0.4,5.1,3.7,4.9,6.7c0.3,8.4,0.1,16.8,0.2,25.2c-3.2,0-6.5,0-9.7,0
		c-0.1-9.1,0.3-18.1-0.4-27.1c-0.6,0.5-1.7,1.5-2.3,2c-0.6,8.4,0,16.8-0.3,25.2c-3.2,0-6.4,0-9.7,0c0-10.4,0.1-20.8,0.1-31.2
		c3.3,0,6.6,0,10,0C777.7,424.4,777.4,425.5,777.3,426z"/>
	<path d="M817.3,427.3c1.8-1.9,3.9-3.4,6.2-4.6c0.1,3.7,0.1,7.4,0.1,11.1c-1.8,0.8-5,0.6-5.3,3.1c-0.7,6-0.2,12.1-0.3,18.1
		c-3.2,0-6.5,0-9.7,0c0-10.4-0.1-20.8-0.1-31.2c3.2,0,6.5,0,9.7,0C817.8,424.7,817.4,426.5,817.3,427.3z"/>
	<path d="M546.6,423.9c3.3,0,6.6,0,9.9,0c0,10.5,0,20.9,0,31.4c-3.3,0-6.6,0-9.9,0C546.6,444.8,546.6,434.3,546.6,423.9z"/>
	<path d="M624.4,424.5c5.5-2.3,13.8-1.5,16.4,4.7c1.4,6.2,0.9,12.6,0.4,18.8c-0.4,4.5-4.7,7.8-9.1,7.7c-4.2,0.5-9.8-0.2-11.6-4.7
		c-1.6-5.5-1-11.3-1-17C619.5,430.4,620.8,426.2,624.4,424.5 M629.1,434.1c0.3,5.2-0.4,10.5,0.5,15.6c0.5,0.1,1.5,0.4,2,0.6
		c0.4-5.8,0.5-11.6,0.2-17.3c-0.2-1.5,0.1-3.1-0.9-4.4C628.6,429.3,629.4,432.2,629.1,434.1z"/>
	<path d="M830.4,424.5c5-2,11.8-1.7,15.3,2.8c2.5,3.7,1.6,8.4,1.8,12.6c-0.1,4.7,0.7,10.6-3.6,13.8c-4.6,2.8-11,2.9-15.5-0.2
		c-4.2-4-2.7-10.4-3.1-15.6C825.2,433.2,825.3,426.8,830.4,424.5 M835.9,427.7c-0.8,3-1,6.2-0.9,9.3c0.1,4.6-0.5,9.3,0.8,13.8
		c1.1-1,2.1-2.2,1.9-3.8c0.2-4.7-0.1-9.4,0.1-14.1C838,431,837,429.3,835.9,427.7z"/>
	<path d="M104.3,485.3c11.1-11.1,26.6-17.5,42.3-17.5c0,2.8,0,5.6,0,8.4c-13.7,0.3-27.2,5.9-36.8,15.7c-9.6,9.6-14.9,23.1-15,36.6
		c-2.8,0-5.6,0-8.4,0C86.2,512.5,92.9,496.5,104.3,485.3z"/>
	<path d="M115.7,496.7c8.2-8,19.5-12.5,30.9-12.4c0,2.8,0,5.6,0,8.3c-9.1,0.3-18.2,3.7-24.8,10.2c-7,6.6-10.9,16.1-11.2,25.7
		c-2.8,0-5.6,0-8.4,0C102.2,516.6,107.1,504.9,115.7,496.7z"/>
	<path d="M142.5,504.7c13.4-3,27.6,7.8,28.7,21.4c1.7,13-9.1,25.8-22.1,26.6c-11.5,1.3-22.9-7-25.7-18.2
		C119.6,521.4,129.2,506.9,142.5,504.7 M134.5,522.2c3.6,0,7.1,0,10.6,0c-3.8,6-7.7,11.9-11.5,17.8c6.8,0,13.6,0,20.4,0
		c1.5-2.4,3-4.8,4.4-7.2c-3.6,0-7.2,0-10.8,0c3.5-5.8,7.2-11.4,10.8-17.2c-6.6,0-13.2,0-19.8,0C137.3,517.9,135.9,520.1,134.5,522.2
		z"/>
	<path d="M172.7,515.3c3.2,0,6.5,0,9.7,0c0.9,5,1.6,10.1,2.5,15.1c1-5,1.8-10.1,2.8-15.1c2.3,0,4.6,0,6.9,0c1,5.1,2,10.2,3,15.4
		c0.9-5.1,1.8-10.2,2.7-15.4c3.1,0,6.1,0,9.2,0c-2.4,8.5-4.8,17-7.2,25.5c-2.8,0-5.6,0-8.5,0c-0.8-4.1-1.6-8.1-2.4-12.2
		c-1,4.1-1.9,8.1-2.9,12.2c-2.8,0-5.5,0-8.2,0C177.8,532.2,175.2,523.8,172.7,515.3z"/>
	<path d="M215.6,515.3c3.5,0,7,0,10.5,0c3.1,8.5,6.1,17,9.1,25.5c-3.5,0-6.9,0-10.4,0c-0.3-1.2-0.5-2.3-0.8-3.5c-2.2,0-4.4,0-6.7,0
		c-0.3,1.2-0.6,2.3-0.9,3.5c-3.4,0-6.8,0-10.2,0C209.4,532.2,212.5,523.8,215.6,515.3 M220.9,523.7c-0.7,2.5-1.4,5-2.1,7.5
		c1.3-0.1,2.5-0.3,3.8-0.4C221.9,528.5,221.3,526.1,220.9,523.7z"/>
	<path d="M230.6,515.3c3.4,0,6.9,0,10.4,0c1.3,4.8,2.5,9.7,3.8,14.5c1.4-4.9,2.8-9.8,4.2-14.7c3.3,0,6.6,0,9.8,0
		c-3.1,8.6-6.3,17.1-9.5,25.6c-3.1,0-6.1,0-9.2,0C237,532.2,233.8,523.8,230.6,515.3z"/>
	<path d="M260.5,515.3c5.7,0,11.4,0,17.1,0c0,2.3,0,4.6,0,6.8c-2.6,0-5.2,0-7.8,0c0,0.8,0,1.5,0,2.3c2.4,0,4.8,0,7.3,0
		c0,2.3,0,4.6,0,7c-2.4,0-4.8,0-7.2,0c0,0.6,0,1.8,0,2.5c2.7,0,5.3,0,8,0c0,2.3,0,4.5,0,6.8c-5.8,0-11.5,0-17.2,0
		C260.5,532.2,260.5,523.8,260.5,515.3z"/>
	<path d="M386.2,516.2c2.2-0.9,4.6-0.3,6.9-0.5c253.7,0,507.3,0,761,0c3.1-0.9,2.9,3.9,0,3.1c-255.1,0-510.1,0-765.2,0
		C387.2,519.2,384.9,518.2,386.2,516.2z"/>
	<path d="M972.2,563.2c3.5-0.9,7.2-0.5,10.8-0.6c46,0,92,0,138,0c4.2-0.2,8.5,0.2,12.2,2.2c5.2,2.6,8.8,8.2,8.6,14
		c0,38.4,0,76.8,0,115.2c0.2,8.9-8.2,16-16.7,15.9c-49.4,0.1-98.7,0-148.1,0c-8.8,0.3-17.8-6.7-17.7-16c0-38.3,0-76.7,0-115
		C958.9,571.4,964.9,564.7,972.2,563.2 M963.6,578c-0.1,24.3,0,48.7,0,73c11.2,0,22.4,0,33.6,0c1.6-0.2,2.6,1.3,3.8,2.2
		c8,7.2,19.8,9.6,30,6.4c5.3-1.5,9.9-4.8,13.9-8.6c30.9,0,61.9,0,92.8,0c0-24,0-48,0-72c0.4-7.2-7-12.5-13.7-12.2
		c-48.6,0-97.3,0-145.9,0C971.4,566.4,964,570.9,963.6,578 M1095.2,669.9c-0.2,6.1,0.3,12.2-0.3,18.2c-0.3,4.5-8.1,4.6-8.4,0
		c-0.7-6-0.1-12.2-0.3-18.2c-2.5,0-5.1,0-7.6,0c0,6,0,12.1,0.2,18.1c0,3.9,2.3,7.6,6,9.1c6.2,2.7,15.9,0.9,17.5-6.7
		c0.8-6.8,0.2-13.7,0.4-20.6C1100.2,669.9,1097.7,669.9,1095.2,669.9 M1115.8,683c2.5,3,6.8,2.9,10,5c0.8,1.5-0.2,3.2-1.9,3.5
		c-2.8,0.6-5.2-1.3-7.5-2.7c-1,2-2.1,4-3.1,6.1c4.5,2.8,10.5,4.5,15.5,1.9c4.7-2.2,6.6-9,3.5-13.2c-2.4-3.3-7.3-2.8-10-5.6
		c0.1-4.2,5.4-2.2,7.6-0.9c1-1.9,1.9-3.9,2.9-5.8c-3.4-1.5-7.2-2.7-11-2C1115.9,670.3,1112.3,678.1,1115.8,683 M1023.5,669.9
		c0,9.2,0,18.4,0,27.6c2.5,0,5,0,7.6,0c0-3-0.1-6-0.1-9c3.5-0.1,7.5,0.3,10.4-1.9c5.1-4.2,3.9-14.3-2.9-16.1
		C1033.7,669.3,1028.6,670.1,1023.5,669.9 M1053.9,669.9c0,9.2,0,18.4,0,27.6c5.3,0,10.6,0,15.8,0c0-2.1,0-4.3,0-6.4
		c-2.8,0-5.6,0-8.4,0c0-7.1,0-14.1,0-21.2C1058.8,669.9,1056.3,669.9,1053.9,669.9z"/>
	<path d="M995.4,588.4c7.6-5.2,16.8-7.6,26-8c0,2-0.1,4-0.1,6.1c-9.7,0.2-19.4,3.7-26.7,10.1c-9.2,7.8-14.7,19.6-14.8,31.6
		c-2,0.1-4,0.2-6,0.2C973.9,612.6,982.1,597,995.4,588.4z"/>
	<path d="M997.8,602.8c6.3-6,15-9.2,23.6-9.5c0,2,0,4,0,6c-10.8,0-21.1,6.7-25.8,16.4c-2,3.9-2.8,8.3-3.1,12.6c-2,0-4,0-5.9,0
		C986.8,618.8,990.7,609.3,997.8,602.8z"/>
	<path d="M1015.4,610.6c9.1-3.3,20.1,1.6,23.6,10.5c3.2,7.6,1,17.2-5.5,22.3c-5.6,4.6-13.9,5.5-20.3,2.2
		c-7.5-3.6-11.9-12.6-10.1-20.8C1004.2,618.4,1009.1,612.8,1015.4,610.6 M1015.1,617.9c-1.3,2.1-2.7,4.2-4,6.4c2.8,0,5.6,0,8.4,0
		c-3,4.7-5.9,9.3-8.8,14c5.5,0,11.1,0,16.7,0c1.4-2.2,2.7-4.3,4.1-6.5c-2.8,0-5.7,0-8.5,0c2.8-4.6,5.7-9.1,8.5-13.8
		C1026,618,1020.5,617.9,1015.1,617.9z"/>
	<path d="M1042.7,618.1c2.2,0,4.5,0,6.8,0c0.9,4.5,1.5,9,2.2,13.5c1.2-4.4,1.8-9,2.9-13.5c1.5,0,3.1,0,4.7,0c1,4.5,1.7,9,2.8,13.5
		c0.7-4.5,1.3-9,2.2-13.5c2.3,0,4.5,0,6.8,0c-1.9,6.6-3.9,13.2-5.8,19.9c-2,0-4.1,0-6.1,0c-0.8-3.6-1.4-7.2-2.4-10.8
		c-0.8,3.6-1.5,7.2-2.3,10.8c-2,0-4,0-6,0C1046.5,631.4,1044.6,624.8,1042.7,618.1z"/>
	<path d="M1078.5,618.1c2.6,0,5.1,0,7.7,0c2.2,6.6,4.5,13.3,6.9,19.9c-2.5,0-4.9,0-7.3,0c-0.1-0.6-0.4-1.9-0.5-2.6
		c-2,0-3.9,0-5.9,0.1c-0.2,0.6-0.5,1.9-0.6,2.5c-2.4,0-4.9,0-7.3,0C1073.7,631.4,1076.1,624.7,1078.5,618.1 M1080.3,631.1
		c1.2,0,2.4,0,3.7,0.1c-0.7-2.6-1.2-5.3-1.7-7.9C1081.6,625.8,1080.9,628.5,1080.3,631.1z"/>
	<path d="M1092.2,618.1c2.5,0,5,0,7.5,0c1.3,4.3,2.5,8.7,3.4,13.1c0.8-4.4,2.1-8.7,3.5-12.9c2.4-0.1,4.9-0.1,7.3-0.2
		c-2.5,6.7-5,13.4-7.6,20c-2.2,0-4.4-0.1-6.5-0.2C1097.3,631.3,1094.8,624.7,1092.2,618.1z"/>
	<path d="M1117.8,618.1c4.3,0,8.7,0,13.1,0c0,1.7,0,3.4,0,5.1c-2.1,0-4.3,0-6.4,0c0,0.6,0,1.8-0.1,2.3c1.9,0,3.8,0,5.8,0
		c0,1.6,0,3.2,0,4.8c-1.9,0-3.8,0-5.7,0c0,0.6,0,1.9,0,2.6c2.2,0,4.4,0,6.5,0c0,1.7,0,3.3,0,5c-4.4,0-8.8,0-13.2,0
		C1117.8,631.4,1117.8,624.8,1117.8,618.1z"/>
	<path d="M94.4,669.7c5.6-1.1,11.6,0.4,16,4.1c5.3,4.3,7.9,11.7,6.6,18.4c-1.1,5.8-4.9,11-10.2,13.6c-5.8,3-13.2,2.7-18.7-0.8
		c-6.7-4-10.3-12.4-8.8-20C80.6,677.3,86.9,671,94.4,669.7 M92.3,673.5c-7,2.6-11.4,10.4-10.1,17.7c1.1,8.2,9.5,14.5,17.7,13.3
		c9.2-0.8,16.2-10.6,13.8-19.5C112.1,675.7,101.1,669.8,92.3,673.5z"/>
	<path d="M1031.5,675.6c2.2,0.3,6.1,0,5.7,3.3c0.4,3.4-3.5,3.1-5.7,3.3C1031.5,680,1031.5,677.8,1031.5,675.6z"/>
	<path d="M135.4,677.5c0.6,0,1.9-0.1,2.6-0.1c0.2,7.1,0.1,14.2,0.1,21.3c-0.6,0-1.9-0.1-2.5-0.2
		C135.2,691.4,135.5,684.4,135.4,677.5z"/>
	<path d="M157.3,677.4c0.6,0,1.8,0,2.4,0c0,6.5,0.1,13,0,19.5c0.3,2.4-3.2,2-3.8,0.3c-3.4-5.6-6.5-11.5-9.5-17.3
		c0.4,6.1,0.1,12.3,0.2,18.4c-0.9,0-1.7,0.1-2.6,0.1c0-7,0-14,0.1-21.1c1.4,0.2,3.6-0.7,4.3,1.1c3.2,5.4,6.1,10.9,9,16.5
		C157.3,689.2,157.2,683.3,157.3,677.4z"/>
	<path d="M170.4,677.6c3.2-0.8,9.3-0.6,8.9,4c-3.1-2.1-8.2-3.6-10.7,0.2c-2.3,3.8-2.5,9.5,0.5,13c2.9,2.9,7.3,1.2,10.4-0.5
		c0.1,3.5-3.9,4.4-6.6,4.4c-3.6,0.2-7-2.2-8-5.6C163.2,687.6,164.3,679.7,170.4,677.6z"/>
	<path d="M182.9,677.7c0.8-0.2,1.7-0.4,2.6-0.6c0.1,6.3,0,12.6,0.1,18.8c2.6,0,5.1-0.1,7.7,0.1c0.2,0.6,0.5,1.8,0.6,2.3
		c-3.7,0.1-7.3,0.1-11,0C182.9,691.5,182.8,684.6,182.9,677.7z"/>
	<path d="M196.9,677.5c0.9-0.1,1.8-0.1,2.7-0.1c0.2,5.2-0.3,10.4,0.2,15.6c1.1,4.7,9.1,4.7,10-0.1c0.4-5.2,0-10.4,0.3-15.6
		c0.7,0,1.9,0.1,2.6,0.1c-0.2,5.3,0.4,10.6-0.3,15.8c-1.4,6.9-13,7.5-15,0.7C196.3,688.6,197.1,683,196.9,677.5z"/>
	<path d="M217.3,683c-1.2-6.3,10.6-8.6,11.4-2.3c-2.3-0.6-4.8-2.2-7.2-1c-1.6,0.6-1.8,2.6-1.3,4.1c2.3,3,7.1,3,8.9,6.5
		c1.8,3.5-1,8-4.9,8.4c-2.9,0.3-7.9,0.1-7.6-3.9c2.4,0.9,4.8,2.3,7.5,1.7c2.6-0.4,4-4.4,1.5-5.9C222.7,688.2,217.5,687.5,217.3,683z
		"/>
	<path d="M233.9,677.5c0.9-0.1,1.8-0.1,2.7-0.2c-0.1,7,0.3,14-0.2,21c-0.6,0.1-1.9,0.3-2.5,0.4C233.8,691.6,233.9,684.6,233.9,677.5
		z"/>
	<path d="M247.4,677.6c4.2-1.4,10-0.1,11.6,4.5c1.6,4.3,1.4,9.6-1.3,13.5c-4,5-14,4.1-15.8-2.5C240.3,687.6,241.1,679.5,247.4,677.6
		 M248.4,679.6c-5.1,1.8-4.9,8.5-3.8,12.9c1.3,5.1,9.4,5.3,11.5,0.7c1.4-3.5,1.5-7.7-0.2-11.2C254.6,679.4,251.1,678.9,248.4,679.6z
		"/>
	<path d="M264.6,677.6c1.3,0,3.2-0.8,3.9,0.8c3.3,5.5,6.3,11.1,9.2,16.8c0-5.9,0-11.8,0-17.7c0.8,0,1.6,0,2.4,0
		c0,7,0.1,14.1-0.1,21.1c-1.5-0.2-3.4,0.2-4-1.5c-3.2-5.6-6.4-11.3-9.3-17c0.3,5.7,0.2,11.4,0.2,17.1c0.4,1.6-1.6,1.3-2.5,1.7
		C264.5,691.7,264.1,684.6,264.6,677.6z"/>
	<path d="M114.4,922.6c12.6-4.8,27.7,4.2,29.8,17.4c2.5,11.9-6.2,24.4-18,26.5c-9.2,2-19.2-2.6-23.9-10.7c-3.2-5.1-4-11.5-2.6-17.3
		C101.6,931.2,107.2,925,114.4,922.6 M115.4,925.5c-7,2.4-12.4,9-13.2,16.4c-1,7.6,3.1,15.5,9.7,19.2c6.2,3.8,14.6,3.5,20.6-0.6
		c7.8-5,11.2-15.8,7.2-24.2C136,927.2,124.8,922.1,115.4,925.5z"/>
	<path d="M173.4,922.6c13-5,28.5,4.8,30,18.5c2.1,12.6-8.5,25.4-21.2,25.8c-11.9,1-23.3-8.9-24-20.8
		C157,935.9,163.8,925.8,173.4,922.6 M174.4,925.5c-7.3,2.5-12.9,9.6-13.2,17.4c-0.7,8.8,5.4,17.4,13.7,19.9
		c6.2,2.1,13.4,0.6,18.4-3.6c6.6-5.3,9.2-15.2,5.5-23C195,927.2,183.7,922,174.4,925.5z"/>
	<path d="M232.4,922.6c13-5,28.5,4.8,29.9,18.5c2.1,12.7-8.6,25.4-21.3,25.8c-11.8,1-23.1-8.9-23.9-20.7
		C216,936,222.8,925.8,232.4,922.6 M233.4,925.5c-8.7,2.9-14.6,12.5-13,21.6c1.4,10.1,11.6,18,21.7,16.5c10.7-1,19.2-12,17.1-22.7
		C257.7,929.4,244.5,921.3,233.4,925.5z"/>
	<path d="M291.4,922.6c13-5,28.6,4.7,30,18.5c2.1,12.7-8.6,25.5-21.4,25.8c-11.8,0.9-23.1-9-23.8-20.8
		C275.1,936,281.8,925.9,291.4,922.6 M292.4,925.6c-7.3,2.5-12.7,9.6-13.1,17.3c-0.6,7.5,3.7,15,10.4,18.5c6.6,3.7,15.3,3,21.2-1.7
		c6.9-5.1,9.7-15,6.4-22.9C313.5,927.4,301.9,921.9,292.4,925.6z"/>
	<path d="M350.4,922.6c13-5.1,28.6,4.7,30.1,18.4c2.2,12.7-8.6,25.6-21.4,25.9c-11.8,0.9-23.1-9-23.9-20.8
		C334.1,936,340.8,925.9,350.4,922.6 M351.3,925.6c-8.3,2.9-14.1,11.8-13,20.6c0.8,9,8.6,16.7,17.6,17.5c9.4,1.2,18.8-5.6,21.1-14.7
		c2-7.3-0.9-15.6-6.8-20.2C365,924.6,357.6,923.3,351.3,925.6z"/>
	<path d="M409.4,922.6c11.6-4.5,25.6,2.7,29.2,14.5c4.1,11.6-3.1,25.2-14.8,28.8c-8.4,2.8-18.3,0-24-6.8c-5.9-6.6-7.4-16.8-3.4-24.7
		C398.9,928.9,403.8,924.7,409.4,922.6 M410.4,925.6c-7.3,2.5-12.7,9.6-13.1,17.3c-0.6,7.5,3.7,15,10.3,18.5
		c6.4,3.6,14.7,3.1,20.6-1.2c7.4-5,10.6-15.3,7-23.6C431.4,927.3,419.9,921.9,410.4,925.6z"/>
	<path d="M527.4,922.7c6-2.2,13-1.7,18.5,1.5c7.8,4.2,12.7,13.1,11.8,21.9c-0.8,10.6-9.9,20-20.6,20.7c-8.7,1-17.5-3.8-21.8-11.3
		c-2.9-4.7-3.7-10.6-2.6-16C514.3,931.9,520,925.3,527.4,922.7 M528.4,925.6c-6.9,2.5-12.2,9.1-12.9,16.5
		c-0.9,7.5,3.1,15.2,9.5,18.9c5.8,3.5,13.4,3.7,19.3,0.4c6.3-3.3,10.5-10.3,10.4-17.5c0-7.1-4.2-13.9-10.5-17.1
		C539.4,924.2,533.5,923.7,528.4,925.6z"/>
	<path d="M645.4,922.7c6.3-2.3,13.5-1.6,19.2,1.8c7.7,4.5,12.4,13.8,11,22.6c-1.3,11.4-12.3,20.6-23.8,19.7
		c-12.1-0.3-22.5-11.8-21.6-23.9C630.7,934,637,925.7,645.4,922.7 M646.4,925.6c-7,2.5-12.2,9.1-12.9,16.5
		c-0.9,7.6,3.3,15.4,10,19.1c5.7,3.3,13.2,3.4,18.9,0.1c6.3-3.3,10.5-10.3,10.3-17.4c0-6.8-3.9-13.5-9.8-16.8
		C658,924.2,651.8,923.7,646.4,925.6z"/>
	<path d="M765.2,922.1c13-4,27.7,6.3,28.6,19.8c1.6,12.6-9.2,24.9-21.8,25c-11.8,0.8-22.9-9.2-23.6-21
		C747.4,935.3,754.9,924.8,765.2,922.1 M764.4,925.7c-7.3,2.6-12.6,9.8-13,17.5c-0.5,7.6,4,15.1,10.7,18.5
		c6.4,3.4,14.8,2.7,20.6-1.7c7.1-5.1,10.1-15.1,6.6-23.2C785.7,927.2,774,921.9,764.4,925.7z"/>
	<path d="M883.2,922.2c13-4,27.7,6.2,28.7,19.7c1.6,12.6-9.2,25-21.8,25c-11.8,0.8-22.8-9.2-23.5-21
		C865.4,935.3,873,924.9,883.2,922.2 M884.2,925.1c-7.7,2-13.8,9-14.5,16.9c-1,7.9,3.5,16.1,10.7,19.6c6.2,3.3,14.3,2.7,20.1-1.4
		c7-4.8,10.4-14.3,7.5-22.4C904.8,928.4,893.9,922.3,884.2,925.1z"/>
	<path d="M1001.2,922.2c13-4.1,27.8,6.2,28.8,19.7c1.6,12.6-9.2,24.9-21.9,25c-11.8,0.8-22.8-9.2-23.5-20.9
		C983.5,935.4,991,924.9,1001.2,922.2 M1002.2,925.2c-7.6,2-13.7,9-14.4,16.9c-1,7.9,3.5,16,10.6,19.6c6.5,3.5,14.9,2.7,20.7-1.7
		c6.7-4.9,9.7-14.2,6.9-22C1022.9,928.3,1011.8,922.2,1002.2,925.2z"/>
	<path d="M1119.2,922.2c12.7-4,27.2,5.5,28.7,18.7c2.1,11.8-7,24-18.8,25.7c-9.2,1.7-18.9-3.1-23.5-11.1c-3.9-6.6-4.1-15.3-0.3-22.1
		C1108.1,928,1113.3,923.9,1119.2,922.2 M1120.2,925.2c-8.9,2.3-15.4,11.5-14.4,20.8c0.7,9.3,8.8,17.3,18.1,17.8
		c8.8,0.8,17.5-5.2,20.2-13.6c2.5-7.4-0.1-16.1-6.1-21C1133.2,925,1126.3,923.4,1120.2,925.2z"/>
</g>
<g id="_x23_030303ff">
	<path class="st2" d="M148,335.1c5.3-0.4,10.6-0.1,15.9-0.2c0.1,0.5,0.1,1.6,0.2,2.2c-2.2,0-4.4,0-6.5,0c-0.1,6.2,0.2,12.5-0.1,18.7
		c-0.6,0.1-1.9,0.3-2.5,0.4c-0.1-6.4,0-12.7,0-19.1C152.5,336.6,148.4,338.6,148,335.1z"/>
</g>
<g id="_x23_fdfdfdff">
	<path class="st3" d="M506.2,429.5c0.5-0.3,1.5-0.8,2-1.1c0.2,7,0.9,14.2-0.2,21.2c-0.5,0.3-1.5,0.8-2,1.1
		C505.8,443.6,505.2,436.5,506.2,429.5z"/>
</g>
<g id="_x23_fbfbfbff">
	<path class="st4" d="M531.2,429.5c0.5-0.3,1.6-0.9,2.1-1.2c0.4,5.7,0.6,11.4-0.1,17.1c-0.6,0.2-1.7,0.7-2.3,1
		C530.8,440.8,530.1,435.1,531.2,429.5z"/>
</g>
<g id="_x23_404040ff">
	<path class="st5" d="M6.2,865.8c1-1.1,2.3-1.5,3.8-1.3c410.1,0.1,820.2,0,1230.3,0.1l0,1.4c-365.8,0.1-731.6,0-1097.4,0
		C97.3,865.9,51.8,866.3,6.2,865.8z"/>
</g>
<g id="_x23_606060ff">
	<path class="st6" d="M2.9,1024.3c2.4-0.1,4.7-0.3,7.1-0.3c400.6,0,801.3,0,1201.9,0c10.8,0.2,21.6-0.5,32.3,0.4l0.4,0.6H2.8
		L2.9,1024.3z"/>
</g>
</svg>
