<?xml version="1.0" encoding="utf-8"?>
<!-- Generator: Adobe Illustrator 21.1.0, SVG Export Plug-In . SVG Version: 6.00 Build 0)  -->
<svg version="1.1" id="Laag_1" xmlns="http://www.w3.org/2000/svg" xmlns:xlink="http://www.w3.org/1999/xlink" x="0px" y="0px"
	 viewBox="0 0 1146 1142" style="enable-background:new 0 0 1146 1142;" xml:space="preserve">
<style type="text/css">
	.st0{fill:#FFFFFF;}
	.st1{fill:none;}
</style>
<g>
	<circle cx="905.2" cy="822.1" r="21.5"/>
	<circle class="st0" cx="905.2" cy="822.1" r="15"/>
</g>
<g>
	<circle cx="905.4" cy="570.2" r="21.5"/>
	<circle class="st0" cx="905.4" cy="570.2" r="15"/>
</g>
<g>
	<circle cx="905.4" cy="318.8" r="21.5"/>
	<circle class="st0" cx="905.4" cy="318.8" r="15"/>
</g>
<g>
	<circle cx="241.4" cy="822.1" r="21.5"/>
	<circle class="st0" cx="241.4" cy="822.1" r="15"/>
</g>
<g id="_x23_f5f5f5ff">
</g>
<path d="M20.9,10.3c1.3-0.3,2.7-0.6,4-0.6c365.7,0,731.5,0,1097.2,0c7.2-0.1,15.1,5.4,14.4,13.2c0,365,0,730.1,0,1095.1
	c0.6,6.8-6,12.6-12.6,12.5c-367,0-733.9,0-1100.9,0c-6.2,0.2-13.1-4.9-12.5-11.5c0-365.7,0-731.4,0-1097.1
	C9.9,16,15.5,11.3,20.9,10.3 M19.9,17c-2.6,1.7-4.4,4.7-4.2,7.9c0,363.7,0,727.5,0,1091.2c-0.2,4,2.9,8.6,7.2,8.4
	c367,0,734.1,0,1101.1,0c3.8,0.3,6.7-3.9,6.6-7.4c0-364.4,0-728.8,0-1093.1c0.1-3.5-2.7-7.8-6.6-7.5c-365,0-730,0-1095.1,0
	C26,16.7,22.7,15.8,19.9,17z"/>
<path d="M199.5,190c3.5-0.5,7-0.2,10.5-0.3c244.7,0,489.4,0,734,0c3.2,0.2,6.9,0.3,9.2,3c3.8,4.1,3.1,10.1,3.1,15.3
	c0,243.7,0,487.4,0,731c0.2,5.3-3.2,12.1-9.3,11.5c-247,0.1-494,0-741.1,0.1c-3.3-0.1-6.6,0.2-9.9-0.5c-3.9-1.8-5.7-6.1-5.7-10.2
	c0-246.3,0-492.6,0-738.9C190.2,195.8,193.8,190,199.5,190 M320.8,195.8c-0.4,8.7,0,17.4-0.2,26.2c0.1,73.1-0.1,146.2,0.1,219.3
	c9.4,0.5,18.9,0.1,28.3,0.2c141.7,0,283.3,0,425,0c17.4-0.2,34.8,0.4,52.1-0.3c0.1-81.8,0.2-163.6,0-245.3
	c-4.4-0.4-8.7-0.2-13.1-0.2c-138.7,0-277.3,0-416,0C371.6,195.8,346.2,195.4,320.8,195.8 M831.7,195.7c-0.3,26.1,0,52.2-0.1,78.3
	c0,55.8-0.1,111.6,0.1,167.4c39.5,0.2,79,0.2,118.5,0c0.1-81.1,0.2-162.3,0-243.4c-1.3-0.7-2.7-1.5-4.2-1.4
	c-37.9-0.1-75.8,0-113.7,0c1.9-0.5,3.8-0.2,5.8-0.2c23.7,0.1,47.3,0,71,0c13.1-0.2,26.3,0.4,39.3-0.3c-9.1-0.9-18.2-0.2-27.3-0.4
	C891.2,195.7,861.5,195.5,831.7,195.7 M196.7,197.9c-0.3,35.3,0,70.7-0.1,106.1c0.1,45.8-0.1,91.6,0.1,137.4
	c39.3,0.3,78.7,0.1,118,0.1c0.3-6.5,0.1-13,0.1-19.4c-0.1-75.2,0.1-150.5-0.1-225.7c-37.6-0.2-75.2,0-112.8-0.1
	C200,196,198.2,196.7,196.7,197.9 M196.6,448.4c-0.1,81.4,0,162.8-0.1,244.2c23.1,0.4,46.3,0,69.4,0.2c16.3-0.2,32.6,0.4,48.8-0.3
	c-0.1-81.5,0.2-162.9-0.2-244.4c-9.2-0.9-18.4-0.1-27.7-0.4c-28.7,0-57.4,0-86.1,0C199.4,447.6,198,448,196.6,448.4 M321.3,448.7
	c0.1,81.3-0.1,162.6,0.1,243.9c29.2,0.3,58.4,0,87.6,0.1c105.3,0,210.7,0,316,0c33.5-0.1,67,0.2,100.5-0.2
	c0.2-81.3,0-162.5,0.1-243.8c-4.3-1.8-9-0.9-13.5-1.1c-162.3,0-324.7,0-487,0C323.7,447.7,322.4,448,321.3,448.7 M831.7,448.4
	c-0.1,81.4,0,162.8-0.1,244.1c9.5,0.4,18.9,0,28.4,0.2c30-0.1,60.1,0.2,90.2-0.2c0.2-72.8,0-145.7,0.1-218.5
	c-0.3-8.6,0.6-17.3-0.5-25.9c-3.6-0.7-7.2-0.3-10.8-0.4c-34.4,0-68.7,0-103.1,0C834.4,447.6,833,448,831.7,448.4 M196.6,699.5
	c-0.2,80.2,0,160.3-0.1,240.5c-0.7,3.6,3.3,5.7,6.4,5.3c37.4-0.1,74.8,0.2,112.2-0.2c0.2-81.8,0.1-163.7,0.1-245.5
	c-9-0.4-18.1-0.1-27.1-0.2C257.5,699.5,227.1,699.3,196.6,699.5 M320.7,699.7c-0.1,81.6-0.1,163.2,0,244.8
	c13.4,0.7,26.9,0.1,40.3,0.3c131,0,262,0,393,0c23.8-0.1,47.7,0.2,71.5-0.2c0.2-81.5,0-163.1,0.1-244.6c-3.5-1-7.1-0.4-10.6-0.5
	c-147.7,0-295.3,0-443,0C354.9,699.6,337.8,699.1,320.7,699.7 M831.7,699.5c-0.1,27.1,0,54.3-0.1,81.5c0.1,54.7-0.2,109.5,0.2,164.2
	c37.1,0.2,74.2,0,111.3,0.1c3.8,0.5,8.1-1.9,7.2-6.2c-0.1-79.8,0.1-159.7-0.1-239.5c-7.7-0.4-15.5,0-23.2-0.2
	C895.2,699.5,863.4,699.3,831.7,699.5z"/>
<path d="M902.5,800.8c11.9-1.9,24.2,8.2,24.1,20.4c0.8,8.9-5.1,17.7-13.3,20.9c-3.8,1.8-8.1,1.5-12.2,1.2c-7.3-1.6-13.8-7-16.1-14.2
	C879.9,817,889.5,802,902.5,800.8 M902.3,807c-4.1,1.2-8,3.5-10.1,7.3c-2.5,3.7-1.9,8.4-1.5,12.6c2.2,6.1,8.5,10.9,15.2,10.5
	c7.3-0.2,13.7-6.3,14.7-13.4C922,814.3,911.8,804.8,902.3,807z"/>
<rect x="360.8" y="553.3" class="st1" width="40.4" height="49.7"/>
<rect x="763.2" y="553.3" class="st1" width="40.4" height="49.7"/>
<rect x="360.8" y="809.7" class="st1" width="40.4" height="49.7"/>
<circle cx="241.3" cy="319.1" r="21.5"/>
<circle class="st0" cx="241.3" cy="319.1" r="15"/>
<g>
	<circle cx="241.3" cy="570.2" r="21.5"/>
	<circle class="st0" cx="241.3" cy="570.2" r="15"/>
</g>
</svg>
