<?xml version="1.0" encoding="utf-8"?>
<!-- Generator: Adobe Illustrator 21.1.0, SVG Export Plug-In . SVG Version: 6.00 Build 0)  -->
<svg version="1.1" id="Laag_1" xmlns="http://www.w3.org/2000/svg" xmlns:xlink="http://www.w3.org/1999/xlink" x="0px" y="0px"
	 viewBox="0 0 1247 1025" style="enable-background:new 0 0 1247 1025;" xml:space="preserve">
<style type="text/css">
	.st0{fill:#0066CC;}
	.st1{fill:#FFFFFF;}
	.st2{fill:#808080;}
	.st3{fill:#030303;}
	.st4{fill:#FDFDFD;}
	.st5{fill:#FBFBFB;}
	.st6{fill:#606060;}
</style>
<circle class="st0" cx="98.1" cy="688.5" r="16.2"/>
<g id="_x23_ffffffff">
	<path class="st1" d="M0,0h2.6l0.5,0.5C2.3,1.4,1.4,2.2,0.5,3L0,2.5V0z"/>
	<path class="st1" d="M1244.2,0h2.8v2.3l-0.6,0.5c-1-0.7-1.9-1.5-2.8-2.3L1244.2,0z"/>
	<path class="st1" d="M173.5,337.4c1.4,3.6,2.6,7.3,3.9,11c-2.6,0-5.1,0-7.7,0C171,344.7,172.2,341,173.5,337.4z"/>
	<path class="st1" d="M835.9,427.7c1,1.6,2.1,3.2,1.9,5.2c-0.1,4.7,0.1,9.5-0.1,14.2c0.2,1.6-0.8,2.8-1.9,3.8
		c-1.4-4.5-0.8-9.3-0.9-13.9C834.9,433.8,835.2,430.7,835.9,427.7z"/>
	<path class="st1" d="M629.3,430.9c-0.4-1,1.8-3.6,2.1-1.5c1.1,6.9,0.6,14,0.2,20.9c-0.5-0.2-1.5-0.5-2-0.6
		C628.8,443.5,629.1,437.1,629.3,430.9z"/>
	<path class="st1" d="M691.6,434.9c0.1-2.2,0.2-4.4,0.3-6.6c3.1,0.9,2.4,4.2,2.7,6.7C693.6,435,692.6,435,691.6,434.9z"/>
	<path class="st1" d="M752.2,447.1c0.1-6.2-0.6-12.5,0.7-18.7c0.4,0.2,1.3,0.7,1.7,1c0.6,7.1,0.8,14.3-0.2,21.3
		C752.8,450.1,752,448.8,752.2,447.1z"/>
	<path class="st1" d="M220.9,523.7c0.5,2.5,1,4.9,1.6,7.4c-1.2,0-2.4,0-3.6,0C219.5,528.6,220.2,526.2,220.9,523.7z"/>
	<path class="st1" d="M1080.3,631.1c0.6-2.6,1.2-5.3,2-7.9c0.5,2.6,1,5.3,1.7,7.9C1082.8,631.1,1081.5,631.1,1080.3,631.1z"/>
	<path class="st1" d="M0,1022.5l0.5-0.5c0.8,0.7,1.7,1.5,2.4,2.3l-0.1,0.7H0V1022.5z"/>
	<path class="st1" d="M1244.2,1024.4c0.6-0.5,1.7-1.5,2.2-2l0.6,0.6v2h-2.4L1244.2,1024.4z"/>
</g>
<g id="_x23_808080ff">
	<path class="st2" d="M2.6,0h1241.6l-0.6,0.4c-5.2,0.9-10.4,0.5-15.6,0.6C821.7,1,415.3,1,9,1C7,0.9,5.1,0.8,3.1,0.5L2.6,0z"/>
	<path class="st2" d="M0,2.5L0.5,3C1.3,8.3,1,13.7,1,19C1,348.3,1,677.7,1,1007c0,5,0.3,10.1-0.5,15l-0.5,0.5V2.5z"/>
	<path class="st2" d="M1246.4,2.8l0.6-0.5V1023l-0.6-0.6c-0.9-8.5-0.2-17-0.4-25.4c0-320.7,0-641.3,0-962
		C1246.2,24.3,1245.4,13.5,1246.4,2.8z"/>
</g>
<g id="_x23_000000ff">
	<path d="M0.5,3c0.9-0.8,1.8-1.6,2.7-2.5C5.1,0.8,7,0.9,9,1c406.3,0,812.7,0,1219,0c5.2,0,10.4,0.3,15.6-0.6
		c0.9,0.8,1.8,1.6,2.8,2.3c-1,10.7-0.2,21.5-0.4,32.2c0,320.7,0,641.3,0,962c0.2,8.5-0.5,17,0.4,25.4c-0.6,0.5-1.7,1.5-2.2,2
		c-9.7-0.8-19.5-0.2-29.2-0.4c-381.3,0-762.7,0-1144,0c-22.7,0.2-45.4-0.4-68,0.3c-0.8-0.8-1.6-1.6-2.4-2.3c0.8-5,0.5-10,0.5-15
		C1,677.7,1,348.3,1,19C1,13.7,1.3,8.3,0.5,3 M6.8,6.8c0,50,0,100,0,150c411.2,0,822.4,0,1233.6,0c0-50,0-100,0-150
		C829.1,6.8,417.9,6.8,6.8,6.8 M6.8,159.9c0,27,0,54,0,81c411.2,0,822.4,0,1233.6,0c0-27,0-54,0-81
		C829.1,159.9,417.9,159.9,6.8,159.9 M6.9,247.1c0,176.9,0,353.9,0,530.9c411.1,0,822.2,0,1233.3,0c0-177,0-353.9,0-530.9
		C829.1,247.1,418,247.1,6.9,247.1 M6.8,784.3c0,27,0,54,0,81c411.2,0,822.4,0,1233.6,0c0-27,0-54,0-81
		C829.1,784.3,417.9,784.2,6.8,784.3 M6.8,868.4c0,50,0,100,0,150c411.2,0,822.4,0,1233.6,0c0-50,0-100,0-150
		C829.1,868.4,417.9,868.4,6.8,868.4z"/>
	<path d="M115.5,59.7c5.8-1.6,12.4-1,17.6,2.2c8.3,4.6,13,14.8,11.1,24.1c-1.8,10-11,18-21.2,18.4c-8.4,0.6-16.9-4.1-21-11.5
		c-3.1-5.2-3.8-11.6-2.2-17.4C101.9,68,108,61.9,115.5,59.7 M116.5,62.7c-7.3,2-13.2,8.6-14.2,16.2c-1.2,7.9,2.9,16.1,9.9,19.9
		c5.7,3.3,13.1,3.4,18.8,0.2c5.9-3.1,10-9.4,10.4-16.1c0.6-7.3-3.6-14.8-10-18.3C127,61.9,121.4,61.3,116.5,62.7z"/>
	<path d="M174.5,59.7c12.3-3.9,26.3,4.7,28.6,17.3c2.5,10.9-4.4,22.7-14.9,26.2c-9.3,3.4-20.4-0.3-26-8.5
		c-4.1-5.6-5.2-13.2-3.2-19.8C161.2,67.7,167.2,61.8,174.5,59.7 M175.5,62.7c-8.4,2.3-14.7,10.6-14.3,19.4c0,9.4,7.7,17.9,16.9,19.1
		c8.4,1.3,17.2-3.6,20.6-11.3c4-7.9,1.3-18.3-5.7-23.7C188.1,62.3,181.4,61,175.5,62.7z"/>
	<path d="M705.5,59.8c12.6-4.2,27.3,5,29.1,18.1c2.2,11.4-5.9,23.2-17.1,25.8c-9.7,2.5-20.5-2.3-25.2-11c-3.8-6.6-3.9-15.1-0.2-21.8
		C694.8,65.7,699.8,61.6,705.5,59.8 M706.5,62.8C701,64.4,696.3,68.7,694,74c-3.5,7.7-1,17.3,5.4,22.6c5.7,4.9,14.2,6.2,21,2.8
		c6.4-2.9,10.9-9.4,11.3-16.4c0.6-7.2-3.3-14.6-9.5-18.2C717.6,61.9,711.7,61.2,706.5,62.8z"/>
	<path d="M765.4,59.6c12.8-3.7,27.1,6.1,28.3,19.3c1.8,11.6-7.1,23.4-18.7,25.2c-9.5,1.8-19.7-3.3-24-11.9c-3.5-6.4-3.5-14.6,0-21
		C753.9,65.5,759.3,61.2,765.4,59.6 M766.4,62.5c-7.7,1.9-13.8,8.7-14.8,16.6c-1.1,7.7,3,15.8,9.8,19.5c5.8,3.5,13.5,3.5,19.3,0.1
		c7.4-4,11.5-13.1,9.6-21.3C788.3,67,776.8,59.7,766.4,62.5z"/>
	<path d="M824.4,59.6c6.3-1.6,13.2-0.5,18.6,3.2c7.5,5,11.5,14.5,9.6,23.3c-2,10.8-12.6,19.1-23.5,18.3
		c-11.6-0.3-21.7-10.8-21.6-22.4C807,71.8,814.5,62.1,824.4,59.6 M825.4,62.5c-9.7,2.3-16.6,12.6-14.6,22.4
		c1.6,10.5,12.8,18.3,23.2,16c10.5-1.9,18-13.2,15.4-23.6C847.2,66.9,835.8,59.7,825.4,62.5z"/>
	<path d="M883.4,59.6c5.6-1.4,11.9-0.8,16.9,2.2c8.2,4.4,13,14.2,11.4,23.4c-1.5,10.5-11.2,19.1-21.8,19.2
		c-11.6,0.7-22.5-9-23.4-20.5C865.2,73.1,872.9,62.3,883.4,59.6 M884.4,62.6c-9.7,2.3-16.5,12.7-14.5,22.5
		c1.6,10.1,12,17.8,22.1,16.1c10.8-1.3,19-12.6,16.6-23.2C906.7,67.2,895,59.6,884.4,62.6z"/>
	<path d="M942.5,59.6c5.6-1.4,11.8-0.8,16.8,2.1c8.2,4.4,13.1,14.2,11.5,23.4c-1.5,10.5-11.1,19.1-21.8,19.3
		c-11.6,0.7-22.5-8.9-23.4-20.4C924.2,73.1,932,62.2,942.5,59.6 M943.4,62.6c-9.7,2.3-16.5,12.7-14.5,22.4
		c1.6,10.5,12.7,18.2,23.1,15.9c10.3-1.8,17.8-12.8,15.6-23.1C965.7,67.2,953.9,59.5,943.4,62.6z"/>
	<path d="M1001.4,59.6c12.4-3.7,26.5,5.4,28.4,18.2c2.3,11.7-6.2,23.8-17.8,26.1c-9.3,2.1-19.5-2.4-24.2-10.7
		c-3.3-5.2-4.1-11.8-2.4-17.8C987.5,67.9,993.8,61.7,1001.4,59.6 M1002.4,62.6c-7.5,1.9-13.6,8.7-14.6,16.4
		c-1.2,7.7,2.9,15.8,9.6,19.6c5.8,3.5,13.5,3.7,19.3,0.3c7.1-3.7,11.3-12.1,10-20C1025.4,67.6,1013.2,59.4,1002.4,62.6z"/>
	<path d="M1060.5,59.6c12.8-3.8,27.2,6,28.5,19.3c1.8,11.7-7.3,23.6-19,25.2c-9.3,1.7-19.2-3.2-23.6-11.5c-3-5.1-3.6-11.4-2.1-17.1
		C1046.5,67.9,1052.8,61.6,1060.5,59.6 M1061.4,62.6c-7.6,1.9-13.6,8.7-14.6,16.4c-1.2,7.7,2.9,15.7,9.6,19.5
		c5.8,3.6,13.4,3.7,19.3,0.3c7.1-3.7,11.3-12.1,10.1-20C1084.5,67.7,1072.3,59.4,1061.4,62.6z"/>
	<path d="M1119.4,59.6c12.8-3.9,27.3,6,28.5,19.3c1.8,11.7-7.3,23.6-19,25.2c-9.2,1.6-19.1-3.2-23.5-11.5
		c-3.7-6.5-3.8-14.9-0.3-21.5C1108.1,65.5,1113.4,61.3,1119.4,59.6 M1120.4,62.6c-7.5,1.9-13.6,8.7-14.5,16.4
		c-1.2,7.9,3.1,16.3,10.2,19.9c5.7,3.3,13.1,3.2,18.7-0.1c6.7-3.6,10.9-11.3,10.2-18.9C1144.3,68.3,1131.7,59.3,1120.4,62.6z"/>
	<path d="M27.2,264.3c392.2-0.2,784.5,0,1176.8-0.1c5.5,0.1,11.1-0.3,16.6,0.2c0.2,0.4,0.6,1.1,0.8,1.5c0.1,163.7,0,327.4,0.1,491.1
		c0,1.7,0.2,4.5-2.3,3.9c-395.1,0.1-790.1,0-1185.2,0c-2.6,0-5.2,0.1-7.7-0.2c-0.5-1.2-0.6-2.4-0.5-3.6c0-163,0-326,0-489
		C25.9,266.7,25.1,264.3,27.2,264.3 M28.8,267.4c0,163.5,0,326.9,0,490.4c396.5,0,793,0,1189.4,0c0-163.5,0-326.9,0-490.4
		C821.8,267.4,425.3,267.4,28.8,267.4z"/>
	<path d="M78.2,309.3c73.2-0.3,146.5-0.1,219.8-0.1c13.6-0.8,26.3,11.2,26,24.9c0,122,0,244,0,366c0.4,10.7-7,20.9-17.1,24.2
		c-4.1,1.5-8.6,1.3-12.9,1.3c-71.3,0-142.6,0-213.9,0c-13.4,0.2-25.2-12-24.8-25.4c0-121.7,0-243.5,0-365.2
		C54.7,322.1,65.4,310.1,78.2,309.3 M79.2,312.3c-11.2,0.3-21,10.5-20.8,21.7c-0.1,122,0,244,0,366c-0.3,9.6,6.6,18.7,15.7,21.4
		c3.8,1.2,7.9,0.9,11.9,0.9c71,0,142,0,213,0c11.9,0.3,22.4-10.6,22-22.4c0-121.7,0-243.4,0-365c0.6-11.9-10-22.9-22-22.7
		C225.7,312.3,152.5,312.2,79.2,312.3z"/>
	<path d="M92.5,327.7c9.2-3,20,2.2,23.5,11.2c2.8,6.7,1.2,15-3.8,20.3c-5,5.5-13.5,7.6-20.5,5c-6.9-2.3-12-8.9-12.7-16.1
		C77.9,339.2,83.9,330.2,92.5,327.7 M94.4,330.4c-7.8,1.7-13.4,9.8-12.2,17.7c0.8,8.5,9.3,15.2,17.8,14c9.1-0.8,16-10.3,13.9-19.2
		C112.4,334.2,102.9,328.2,94.4,330.4z"/>
	<path d="M135.1,342.9c-1.8-2.8-0.4-7.1,2.9-7.9c2.8-1,7.6-0.6,7.8,3.2c-2.4-0.6-5-2.3-7.5-0.9c-1.4,0.7-1.4,2.4-1.2,3.8
		c2.2,3.3,7.6,3.1,9.1,7.1c1.6,4-2,8.4-6.2,8.1c-2.6,0-6.9-0.3-6.5-3.9c2.4,0.8,4.7,2.2,7.3,1.6c2.2-0.3,3.8-3.3,2.4-5.1
		C141.1,346.1,137,345.9,135.1,342.9z"/>
	<path d="M172.1,334.9c0.8,0,2.4,0,3.2,0c2.6,7,5.1,14,7.6,21c-0.7,0-2.1,0.1-2.8,0.2c-0.7-1.9-1.3-3.7-2-5.6c-3,0-6,0-9,0
		c-1.1,2.3-0.9,6.3-4.5,5.8C166.7,349.1,169.6,342,172.1,334.9 M173.5,337.4c-1.2,3.7-2.5,7.3-3.8,11c2.6,0,5.1,0,7.7,0
		C176.1,344.7,174.9,341,173.5,337.4z"/>
	<path d="M183.9,334.9c5.2,0,10.3,0,15.5,0c0.1,0.7,0.1,1.5,0.2,2.2c-2.2,0-4.3,0-6.5,0c-0.1,6.3,0.1,12.6-0.1,18.9
		c-0.6,0-1.9,0-2.6,0c0-6.3,0-12.6,0-18.9c-2.2,0-4.3,0-6.5,0C183.9,336.6,183.9,335.5,183.9,334.9z"/>
	<path d="M202.4,334.9c0.7,0,2,0,2.7,0c0.2,5.2-0.3,10.4,0.2,15.6c1.1,4.9,9.5,4.6,10.1-0.5c0.3-5,0-10.1,0.1-15.1
		c0.7,0,2,0,2.7-0.1c-0.2,5.4,0.4,10.8-0.3,16.1c-1.2,5.1-7.8,6.5-12,4.2c-2.2-1.2-3.3-3.8-3.3-6.2
		C202.3,344.3,202.4,339.6,202.4,334.9z"/>
	<path d="M222.8,340c-0.5-6,10.6-7.7,11.5-1.8c-2.4-0.5-4.9-2.3-7.3-1.1c-1.7,0.5-1.8,2.5-1.5,3.9c2.1,2.9,6.3,3.1,8.6,5.9
		c2.4,3.4-0.1,8.6-4.2,9.1c-3,0.4-7.9,0.3-8.1-3.8c2.4,0.7,4.7,2.1,7.2,1.7c2.9-0.1,4.6-4.3,2-6C228.1,345.7,222.5,344.8,222.8,340z
		"/>
	<path d="M429.9,378.1c1.9-1.7,4.8-1.5,6.6,0.2c10.4,8.6,20.7,17.3,31.2,25.9c2.3,2,6,4.2,4.7,7.8c-1,3.7-5.8,4.2-8.3,1.8
		c-10.4-8.4-20.6-17.2-30.9-25.7c-9.8,8.2-19.7,16.4-29.5,24.6c-1.6,1.2-3.4,2.9-5.7,2.6c-3.3-0.1-5.5-4.4-3.8-7.1
		c2.6-3.3,6.4-5.4,9.3-8.4c0.5-5.6-0.4-11.2,0.4-16.7c0.8-3.7,6.5-4.7,8.5-1.5c1.7,3.1,0.9,6.9,1,10.3
		C418.9,387.2,424.3,382.5,429.9,378.1z"/>
	<path d="M400,416.6c3.3,0,6.5,0,9.8,0c0,8.5,0,17,0.2,25.4c-0.2,4.4,3.7,8.4,8,8.3c10.3,0,20.7,0.1,31,0c4.4,0.1,8-4,7.8-8.3
		c0.1-8.4,0-16.8,0-25.1c3.2,0,6.5,0,9.8,0c0,8.9,0.1,17.8-0.1,26.7c-0.5,8.9-8.5,16.5-17.4,16.5c-9.3,0.1-18.7,0-28,0
		c-3.3,0-6.7,0-9.8-1.3c-6.3-2.6-11-8.9-11.2-15.8C399.9,434.2,400,425.4,400,416.6z"/>
	<path d="M716.5,423.1c2.7-8.1,14.4-8.9,20.3-3.8c3.7,3.8,2.6,9.5,2.9,14.3c-3.4,0-6.8,0-10.2,0c0-3.9,0.6-7.9-1.1-11.5
		c-3.4,1.2-2.4,5.1-2.6,7.9c0.1,6.3-0.4,12.7,0.4,19c0.7,0.1,2.1,0.4,2.8,0.6c0.4-3.2,0.5-6.5,0.5-9.8c3.4,0,6.7,0,10.1,0
		c-0.3,4.6,0.5,10.3-3.6,13.5c-6.2,5.1-19.3,3.2-19.9-6.2C716,439.2,715.2,431,716.5,423.1z"/>
	<path d="M427.5,417.6c4.2-0.4,8.5-0.6,12.6,0.3c3.4,1.5,2.6,6,2.8,9c-0.1,3.2,0.6,8.1-3.4,9.3c-4.3,0.5-8.7,0.8-13-0.1
		c-3.8-1.3-3-6.1-3.2-9.2C423.4,423.6,422.9,418.2,427.5,417.6z"/>
	<path d="M478.2,417c3.4,0,6.7,0,10.1,0c0,10.2,0,20.3,0,30.5c2,0,4.1,0,6.1,0c0,2.6,0,5.2,0,7.8c-5.4,0-10.7,0-16.1,0
		C478.2,442.5,478.2,429.8,478.2,417z"/>
	<path d="M546.6,417c3.3,0,6.6,0,9.9,0c0,1.7,0,3.3,0,5c-3.3,0-6.6,0-9.9,0C546.6,420.3,546.6,418.7,546.6,417z"/>
	<path d="M593,416.9c3.3,0,6.7,0,10,0c0,4.6,0,9.2,0,13.8c0.8,0,2.2,0,3,0c0-4.6,0-9.2,0-13.8c3.4,0,6.8,0,10.1,0
		c0,12.8,0,25.6,0,38.4c-3.4,0-6.8,0-10.1,0c0-5.4,0-10.8,0-16.1c-0.8,0-2.2,0-3,0c0,5.4,0,10.8,0,16.1c-3.3,0-6.7,0-10,0
		C593,442.5,593,429.7,593,416.9z"/>
	<path d="M850.6,417c3.3,0,6.6,0,9.9,0c0,12.8,0,25.6,0,38.4c-3.3,0-6.6,0-9.9,0C850.6,442.6,850.6,429.8,850.6,417z"/>
	<path d="M794.1,419.6c3.1,0,6.2,0,9.4,0c0,1.6,0,3.2,0,4.8c0.7,0.1,2,0.2,2.6,0.2c0,1.6,0,3.3,0,4.9c-0.6,0.1-1.9,0.2-2.5,0.2
		c0.2,6.5-0.2,13.1,0.2,19.6c0.9,0.4,1.8,0.7,2.7,1.1c0,1.6,0,3.1,0,4.7c-4-0.2-10.2,1.3-12.2-3.4c-1.1-7.3-0.3-14.8-0.5-22.2
		c-0.5-0.1-1.6-0.2-2.2-0.2c0-1.3,0-2.5,0.1-3.8C794,424.4,793.9,421.8,794.1,419.6z"/>
	<path d="M503.4,423.6c5-1.2,11.8,0.2,13.9,5.4c1.4,5.9,0.8,12,0.6,18c-0.2,4.3-3.5,8-7.8,8.4c-4.9,0.8-12.3,0-13.5-5.9
		c-1-5.9-0.7-11.9-0.3-17.8C496.4,427.9,499.5,424.3,503.4,423.6 M506.2,429.5c-1,7-0.3,14.1-0.2,21.1c0.5-0.3,1.5-0.9,2-1.1
		c1-7,0.4-14.1,0.2-21.2C507.7,428.6,506.7,429.2,506.2,429.5z"/>
	<path d="M524.1,424c3-1.8,6.6-0.2,9.3,1.4c2.1-3.1,6.6-1,9.7-1.5c0,9.7,0,19.4-0.1,29.2c0,3.7-3.4,6.5-6.8,7.1
		c-4.2,0.8-8.9,0.8-12.8-1.3c-1.8-1.4-2.1-3.9-2.9-5.8c3-0.1,5.9-0.1,8.9,0c1.1,1,2.3,1.8,3.6,2.4c0.3-1.8,0.6-3.6,1-5.4
		c-2.7,0.9-5.6,2.4-8.5,1.4c-2.4-0.7-4.1-2.9-4.2-5.3c-0.4-4.7-0.2-9.4-0.2-14.1C521.1,429.2,521.2,425.6,524.1,424 M531.2,429.6
		c-1.1,5.5-0.4,11.2-0.2,16.8c0.6-0.2,1.7-0.7,2.3-0.9c0.7-5.7,0.5-11.5,0.1-17.2C532.8,428.6,531.7,429.2,531.2,429.6z"/>
	<path d="M560.6,428.4c3.5-6.3,13.1-6.6,18.2-2.1c2.4,2.5,2.3,6.2,2.7,9.5c-3.1,0-6.2,0-9.2,0c-0.2-2.7,0.7-6.3-2.6-7.3
		c-0.2,4.9-0.5,9.7-0.4,14.6c0.1,2.8-0.1,5.9,1.9,8.2c1.6-2.6,1.5-5.7,1.5-8.7c2.9,0,5.7,0,8.6,0c-0.4,3.5,0,7.6-2.7,10.3
		c-3.6,3.8-9.7,3.9-14.3,2c-4-1.9-4.7-6.9-4.7-10.8C559.7,438.8,559.1,433.4,560.6,428.4z"/>
	<path d="M653.9,426.3c1.9-1.2,3.7-3,6.1-3c2.5-0.2,4.4,1.6,6.3,2.9c1.8-1.2,3.4-2.7,5.7-2.9c3.3-0.5,6.9,2.1,6.8,5.6
		c0.5,8.8,0.2,17.6,0.2,26.4c-3.1,0-6.2,0-9.4,0c-0.2-8.9,0.5-17.9-0.5-26.7c-1.9,0.2-2.6,1.7-2.5,3.5c-0.2,7.8,0,15.6-0.1,23.4
		c-3.1,0-6.2,0-9.4,0c-0.2-8.9,0.6-17.9-0.5-26.8c-0.8,0.7-2.6,0.9-2.3,2.4c-0.2,8.1-0.2,16.3-0.2,24.5c-3.1,0-6.2,0-9.4,0
		c-0.1-10.5-0.3-21-0.2-31.5c3.2,0,6.4,0,9.6,0C654.2,424.5,654,425.7,653.9,426.3z"/>
	<path d="M685.4,425.5c4.6-3.4,11.8-3,16.1,0.9c3.2,3.8,2.6,9.1,2.8,13.7c-4.2,0-8.4,0-12.5,0c0,3.3-0.2,6.6,0.5,9.9
		c1.3,0.9,2.9-0.5,2.6-1.9c0.2-2,0.2-4,0.3-6c3.1,0,6.1,0,9.2,0c-0.1,4.2-0.2,9.4-4.2,11.9c-4.8,2.6-11.5,2.4-15.6-1.5
		c-3.4-3.6-2.1-9-2.6-13.5C682.3,434.5,681.3,428.7,685.4,425.5 M691.6,434.9c1,0,2,0.1,3,0.1c-0.2-2.5,0.4-5.8-2.7-6.7
		C691.8,430.5,691.7,432.7,691.6,434.9z"/>
	<path d="M749.5,423.8c4.9-1.3,11.5-0.3,14.1,4.6c1.5,3.7,1.1,7.8,1.2,11.6c-0.2,4.2,0.7,9-2.3,12.5c-3,3.6-8.3,3.8-12.6,3.1
		c-3.3-0.4-6.3-3-6.8-6.4c-0.8-6.1-0.8-12.3,0-18.4C743.4,427.4,746.2,424.5,749.5,423.8 M752.2,447.1c-0.2,1.7,0.6,3,2.1,3.6
		c1-7.1,0.8-14.2,0.2-21.3c-0.4-0.2-1.3-0.7-1.7-1C751.6,434.6,752.4,440.9,752.2,447.1z"/>
	<path d="M777.3,426c2.3-1.5,4.9-3.4,7.8-2.8c3.1,0.4,5,3.7,4.9,6.6c0.3,8.4,0.1,16.8,0.2,25.2c-3.2,0-6.5,0-9.7,0
		c-0.1-9.1,0.3-18.1-0.4-27.2c-0.6,0.5-1.7,1.6-2.3,2.1c-0.5,8.4-0.1,16.7-0.2,25.1c-3.2,0-6.5,0-9.7,0c0-10.4,0.1-20.8,0.1-31.2
		c3.3,0,6.7,0,10,0C777.7,424.4,777.4,425.5,777.3,426z"/>
	<path d="M817.3,427.3c1.8-1.8,4-3.4,6.2-4.6c0.1,3.7,0.1,7.4,0.1,11.1c-1.8,0.8-5,0.7-5.3,3.2c-0.7,6-0.2,12.1-0.3,18.1
		c-3.2,0-6.5,0-9.7,0c0-10.4-0.1-20.8-0.1-31.2c3.2,0,6.5,0,9.7,0C817.8,424.7,817.4,426.4,817.3,427.3z"/>
	<path d="M546.6,423.9c3.3,0,6.6,0,9.9,0c0,10.5,0,20.9,0,31.4c-3.3,0-6.6,0-9.9,0C546.6,444.8,546.6,434.3,546.6,423.9z"/>
	<path d="M624.4,424.5c5.5-2.3,13.8-1.5,16.3,4.7c1.4,6.2,0.8,12.6,0.4,18.9c-0.4,4.4-4.7,7.7-9,7.7c-4.3,0.5-10-0.3-11.7-4.9
		c-1.5-5.5-0.9-11.2-0.9-16.8C619.5,430.4,620.8,426.1,624.4,424.5 M629.3,430.9c-0.2,6.2-0.5,12.5,0.3,18.7c0.5,0.2,1.5,0.5,2,0.6
		c0.3-6.9,0.9-14-0.2-20.9C631.1,427.3,628.9,429.9,629.3,430.9z"/>
	<path d="M830.4,424.5c5-2,11.8-1.7,15.3,2.8c2.5,3.7,1.6,8.5,1.8,12.7c-0.1,4.5,0.6,10-3.1,13.4c-4.5,3.3-11.4,3.4-16,0.3
		c-4.2-4-2.8-10.4-3.1-15.6C825.2,433.2,825.3,426.8,830.4,424.5 M835.9,427.7c-0.7,3-1,6.2-0.9,9.3c0.1,4.6-0.5,9.4,0.9,13.9
		c1.1-1,2.1-2.2,1.9-3.8c0.2-4.7,0-9.5,0.1-14.2C838,430.9,836.9,429.2,835.9,427.7z"/>
	<path d="M104.4,485.3c11.1-11.1,26.6-17.5,42.2-17.5c0,2.8,0,5.6,0,8.4c-13.7,0.3-27.2,5.9-36.8,15.7c-9.6,9.6-14.9,23.1-15,36.6
		c-2.8,0-5.6,0-8.4,0C86.2,512.4,92.9,496.5,104.4,485.3z"/>
	<path d="M116.2,496.2c8.1-7.7,19.2-12,30.4-11.9c0,2.8,0,5.5,0,8.3c-9.1,0.3-18.2,3.7-24.8,10.1c-7,6.6-10.9,16.1-11.2,25.7
		c-2.8,0-5.6,0-8.4,0C102.2,516.4,107.3,504.4,116.2,496.2z"/>
	<path d="M142.4,504.7c13.5-3,27.6,7.8,28.7,21.4c1.6,12.9-9.1,25.7-22,26.5c-11.5,1.3-23-7-25.8-18.2
		C119.6,521.4,129.2,506.9,142.4,504.7 M134.5,522.2c3.6,0,7.1,0,10.6,0c-3.8,6-7.7,11.9-11.5,17.8c6.8,0,13.6,0,20.4,0
		c1.5-2.4,3-4.8,4.4-7.2c-3.6,0-7.2,0-10.8,0c3.6-5.8,7.2-11.4,10.8-17.2c-6.6,0-13.2,0-19.8,0C137.3,517.9,135.9,520.1,134.5,522.2
		z"/>
	<path d="M172.7,515.3c3.2,0,6.5,0,9.7,0c0.9,5,1.6,10.1,2.5,15.1c1-5,1.8-10.1,2.8-15.1c2.3,0,4.6,0,6.9,0c1,5.1,2,10.2,3,15.4
		c0.9-5.1,1.8-10.2,2.7-15.4c3.1,0,6.1,0,9.2,0c-2.4,8.5-4.8,17-7.2,25.5c-2.8,0-5.7,0-8.5,0c-0.8-4.1-1.6-8.1-2.4-12.2
		c-0.9,4.1-1.9,8.1-2.9,12.2c-2.8,0-5.5,0-8.2,0C177.8,532.2,175.2,523.8,172.7,515.3z"/>
	<path d="M215.6,515.3c3.5,0,7,0,10.5,0c3.1,8.5,6.1,17,9.1,25.5c-3.5,0-6.9,0-10.4,0c-0.3-1.2-0.5-2.3-0.8-3.5c-2.2,0-4.5,0-6.7,0
		c-0.3,1.2-0.6,2.3-0.9,3.5c-3.4,0-6.8,0-10.2,0C209.4,532.2,212.5,523.8,215.6,515.3 M220.9,523.7c-0.7,2.5-1.4,4.9-2,7.4
		c1.2,0,2.4,0,3.6,0C221.9,528.6,221.4,526.2,220.9,523.7z"/>
	<path d="M230.6,515.3c3.4,0,6.9,0,10.3,0c1.3,4.8,2.5,9.7,3.8,14.5c1.4-4.9,2.8-9.8,4.2-14.7c3.3,0,6.6,0,9.8,0
		c-3.1,8.6-6.3,17.1-9.5,25.6c-3.1,0-6.1,0-9.2,0C237,532.2,233.7,523.8,230.6,515.3z"/>
	<path d="M260.5,515.3c5.7,0,11.4,0,17.1,0c0,2.3,0,4.6,0,6.9c-2.6,0-5.2,0-7.9,0c0,0.6,0,1.7,0,2.3c2.4,0,4.8,0,7.2,0
		c0,2.3,0,4.6,0,7c-2.4,0-4.8,0-7.2,0c0,0.6,0,1.8,0,2.5c2.7,0,5.3,0,8,0c0,2.3,0,4.5,0,6.8c-5.7,0-11.5,0-17.2,0
		C260.5,532.2,260.5,523.8,260.5,515.3z"/>
	<path d="M386.3,516c12.2-0.7,24.5-0.1,36.7-0.3c241.6,0,483.3,0,724.9,0c2.6,0.1,5.4-0.4,7.9,0.4c1.7,1-0.4,3.2-1.8,2.7
		c-255,0-510.1,0-765.1,0C387.1,519.1,384.7,518.2,386.3,516z"/>
	<path d="M972.2,563.2c3.2-0.8,6.5-0.6,9.8-0.6c47.7,0,95.3,0,143,0c8.3,0.1,16.7,6.6,16.8,15.3c0,38.7,0,77.4,0,116.1
		c0.2,8.9-8.2,16-16.8,15.9c-49.7,0-99.4,0.1-149,0c-8.8-0.1-17.3-7.7-16.7-16.9c0-38.1,0-76.1,0-114.2
		C959,571.4,965,564.7,972.2,563.2 M963.5,579c0,24,0,48,0,72c11.2,0,22.4,0,33.6,0c1.6-0.2,2.6,1.3,3.7,2.1
		c7.9,7.2,19.8,9.7,30,6.5c5.3-1.5,10-4.9,13.9-8.7c30.9,0,61.9,0,92.8,0c0-24,0-48,0-72c0.3-7.1-7-12.5-13.7-12.1
		c-49,0-97.9,0-146.9,0C970.4,566.7,963.3,571.9,963.5,579 M1095.2,669.9c-0.2,6,0.3,12.1-0.3,18.2c-0.3,4.6-8.2,4.7-8.4,0
		c-0.7-6-0.1-12.1-0.3-18.2c-2.5,0-5.1,0-7.6,0c0.1,6.7-0.3,13.4,0.4,20.1c1.9,11.2,21.7,11.1,23.4-0.2c0.5-6.6,0.1-13.3,0.2-19.9
		C1100.2,669.9,1097.7,669.9,1095.2,669.9 M1115.9,683.1c2.5,3,6.8,3,9.9,4.9c0.8,1.6-0.2,3.3-1.9,3.6c-2.8,0.6-5.2-1.3-7.4-2.7
		c-1,2-2.1,4-3.1,6.1c4.6,2.8,10.5,4.5,15.5,1.9c4.7-2.2,6.5-9,3.5-13.2c-2.5-3.3-7.4-2.8-10.1-5.7c0.3-4.1,5.4-2.2,7.7-0.9
		c1-1.9,1.9-3.9,2.9-5.8c-3.4-1.5-7.2-2.7-11-2C1115.9,670.3,1112.3,678.1,1115.9,683.1 M1023.5,669.9c0,9.2,0,18.4,0,27.6
		c2.5,0,5,0,7.6,0c0-3-0.1-6-0.1-9c3.3-0.1,6.9,0.3,9.8-1.5c5.8-3.8,4.8-14.6-2.2-16.5C1033.7,669.3,1028.6,670.1,1023.5,669.9
		 M1053.9,669.9c0,9.2,0,18.4,0,27.6c5.3,0,10.6,0,15.9,0c0-2.1,0-4.3,0-6.4c-2.8,0-5.6,0-8.4,0c0-7.1,0-14.1,0-21.2
		C1058.8,669.9,1056.3,669.9,1053.9,669.9z"/>
	<path d="M995.4,588.4c7.6-5.2,16.8-7.7,26-8c0,2-0.1,4-0.1,6.1c-10,0.2-19.8,3.9-27.2,10.6c-8.8,7.8-14.1,19.3-14.2,31.1
		c-2,0.1-4,0.2-6,0.2C973.9,612.6,982.1,597,995.4,588.4z"/>
	<path d="M997.8,602.8c6.3-6,15-9.2,23.6-9.5c0,2,0,4,0,6c-10.5,0.1-20.7,6.4-25.5,15.8c-2.2,4-3.1,8.6-3.4,13.2c-2,0-4,0-5.9,0
		C986.8,618.8,990.7,609.3,997.8,602.8z"/>
	<path d="M1015.4,610.6c9-3.3,20,1.5,23.6,10.5c3.4,7.8,0.9,17.8-6.1,22.8c-5.9,4.6-14.7,5-21,1.1c-7.2-4.2-10.9-13.5-8.5-21.5
		C1004.9,617.6,1009.6,612.6,1015.4,610.6 M1015.1,617.9c-1.3,2.1-2.7,4.2-4,6.4c2.8,0,5.6,0,8.4,0c-3,4.7-5.9,9.3-8.8,14
		c5.6,0,11.1,0,16.7,0c1.4-2.2,2.7-4.3,4.1-6.5c-2.8,0-5.7,0-8.5,0c2.8-4.6,5.7-9.1,8.5-13.8C1026,618,1020.5,617.9,1015.1,617.9z"
		/>
	<path d="M1042.7,618.1c2.2,0,4.5,0,6.8,0c0.9,4.5,1.5,9,2.2,13.5c1.1-4.5,1.8-9,2.9-13.5c1.5,0,3.1,0,4.7,0c1,4.5,1.7,9,2.8,13.4
		c0.8-4.5,1.3-9,2.2-13.4c2.3,0,4.5,0,6.8,0c-1.9,6.6-3.9,13.2-5.8,19.9c-2,0-4.1,0-6.1,0c-0.8-3.6-1.5-7.3-2.4-10.8
		c-0.8,3.6-1.5,7.2-2.3,10.8c-2,0-4,0-6,0C1046.5,631.4,1044.6,624.8,1042.7,618.1z"/>
	<path d="M1078.5,618.1c2.6,0,5.1,0,7.7,0c2.2,6.6,4.5,13.3,6.9,19.9c-2.4,0-4.7,0-7.1,0c-0.4-3.7-4.1-2.5-6.7-2.5
		c-0.2,0.6-0.5,1.9-0.6,2.5c-2.4,0-4.9,0-7.3,0C1073.7,631.4,1076.1,624.7,1078.5,618.1 M1080.3,631.1c1.2,0,2.4,0,3.7,0
		c-0.7-2.6-1.2-5.3-1.7-7.9C1081.6,625.8,1081,628.5,1080.3,631.1z"/>
	<path d="M1092.2,618.1c2.5,0,5,0,7.5,0c1.3,4.3,2.4,8.5,3.4,12.9c0.9-4.3,2.1-8.5,3.5-12.7c2.4-0.1,4.9-0.1,7.3-0.2
		c-2.5,6.7-5,13.4-7.6,20c-2.2,0-4.4-0.1-6.6-0.2C1097.3,631.3,1094.8,624.7,1092.2,618.1z"/>
	<path d="M1117.8,618.1c4.3,0,8.7,0,13.1,0c0,1.7,0,3.4,0,5.1c-2.1,0-4.3,0-6.4,0c0,0.6,0,1.8-0.1,2.3c1.9,0,3.8,0,5.8,0
		c0,1.6,0,3.2,0,4.8c-1.9,0-3.8,0-5.7,0c0,0.6,0,1.9,0,2.6c2.2,0,4.4,0,6.5,0c0,1.7,0,3.3,0,5c-4.4,0-8.8,0-13.2,0
		C1117.8,631.4,1117.8,624.8,1117.8,618.1z"/>
	<path d="M94.4,669.7c5.6-1.1,11.6,0.4,15.9,4c5.3,4.3,8,11.7,6.6,18.5c-1.1,6.1-5.3,11.4-11,13.9c-6.5,3-14.7,1.9-20.2-2.7
		c-5.9-4.8-8.4-13.3-6-20.5C81.8,676.2,87.6,671,94.4,669.7 M92.3,673.5c-6.6,2.4-11,9.6-10.2,16.6c0.6,8.7,9.2,15.6,17.8,14.4
		c9.2-0.7,16.2-10.5,13.9-19.5C112.1,675.7,101.1,669.8,92.3,673.5z"/>
	<path d="M1031.5,675.6c2.2,0.4,6.1,0,5.7,3.3c0.4,3.4-3.5,3.1-5.7,3.3C1031.5,680,1031.5,677.8,1031.5,675.6z"/>
	<path d="M135.4,677.5c0.6,0,1.9-0.1,2.6-0.1c0.2,7.1,0.1,14.2,0.1,21.3c-0.6-0.1-1.9-0.2-2.6-0.2
		C135.2,691.4,135.4,684.4,135.4,677.5z"/>
	<path d="M157.3,677.4c0.6,0,1.8,0,2.4,0c0,6.5,0.1,13,0,19.6c0.3,2.3-3.3,2-3.9,0.2c-3.4-5.6-6.4-11.4-9.5-17.2
		c0.3,6.1,0.1,12.3,0.1,18.4c-0.9,0-1.7,0.1-2.6,0.1c0-7-0.1-14.1,0-21.1c1.4,0.3,3.7-0.6,4.3,1.1c3.1,5.4,6.1,10.9,9,16.5
		C157.3,689.2,157.2,683.3,157.3,677.4z"/>
	<path d="M170.4,677.6c3.3-0.8,9.3-0.7,9.1,4c-3-1.8-7.5-3.6-10.3-0.4c-2.9,3.7-3,9.9,0,13.6c3,3,7.3,1.2,10.5-0.5
		c-0.1,3.5-3.9,4.4-6.7,4.3c-3.8,0.2-7.4-2.5-8.2-6.1C163.3,687.2,164.4,679.7,170.4,677.6z"/>
	<path d="M182.9,677.4c0.7,0,2,0,2.6,0.1c0,6.2,0,12.4,0,18.6c2.6,0,5.1-0.1,7.7,0.1c0.2,0.6,0.6,1.7,0.8,2.3
		c-3.7,0.2-7.4,0.2-11.1,0C182.8,691.4,182.8,684.4,182.9,677.4z"/>
	<path d="M196.9,677.4c0.9,0,1.8,0,2.6-0.1c0.2,5.2-0.3,10.5,0.2,15.7c1.1,4.7,9,4.7,10-0.1c0.5-5.2,0-10.4,0.3-15.6
		c0.6,0,1.9,0.1,2.6,0.1c-0.2,5.3,0.4,10.6-0.3,15.8c-1.3,7-13,7.5-15,0.7C196.3,688.5,197.1,682.9,196.9,677.4z"/>
	<path d="M217.3,683c-1.1-6.3,10.4-8.4,11.5-2.3c-2.7-0.8-6.8-2.9-8.7,0.4c-1.2,4.3,4.3,5.1,6.9,6.9c4.5,2.4,2.7,9.7-2.1,10.5
		c-3,0.5-8.4,0.5-8.4-3.8c2.4,0.9,4.9,2.3,7.5,1.7c2.6-0.4,4-4.4,1.5-5.9C222.7,688.2,217.4,687.4,217.3,683z"/>
	<path d="M233.9,677.3c0.7,0,1.9,0.1,2.6,0.1c-0.1,7,0.2,13.9-0.2,20.9c-0.6,0.1-1.9,0.3-2.5,0.5
		C233.9,691.6,233.8,684.5,233.9,677.3z"/>
	<path d="M247.4,677.6c4.2-1.4,9.9-0.1,11.6,4.4c1.6,4.1,1.4,9.1-0.9,12.9c-3.6,5.7-14.4,5-16.2-2
		C240.3,687.6,241.1,679.5,247.4,677.6 M248.4,679.6c-5.1,1.8-5,8.6-3.8,12.9c1.4,5.1,9.4,5.3,11.5,0.7c1.4-3.5,1.5-7.8-0.2-11.2
		C254.5,679.4,251.1,678.9,248.4,679.6z"/>
	<path d="M264.7,677.5c1.3,0,3.2-0.7,3.9,0.9c3.2,5.5,6.2,11.1,9.2,16.7c0-5.9,0-11.8,0-17.7c0.8,0,1.6,0,2.4,0
		c0,7,0.1,14.1-0.1,21.1c-1.4-0.3-3.4,0.2-4-1.6c-3.2-5.6-6.3-11.3-9.4-17c0.4,6.1,0.1,12.2,0.2,18.3c-0.9,0.1-1.7,0.1-2.6,0.2
		C264.5,691.6,264,684.5,264.7,677.5z"/>
	<path d="M115.5,924.6c12.3-3.9,26.3,4.8,28.6,17.4c2.5,11.2-4.9,23.3-16,26.4c-9.5,2.9-20.5-1.3-25.6-9.8
		c-3.6-5.5-4.4-12.5-2.6-18.7C102.2,932.7,108.2,926.7,115.5,924.6 M116.4,927.6c-9.1,2.5-15.6,12.1-14.2,21.5
		c1.1,9.9,10.8,17.9,20.7,17.1c11.3-0.4,20.5-12,18.1-23.1C139.3,932,127.2,924.2,116.4,927.6z"/>
	<path d="M174.4,924.6c12.3-4,26.4,4.8,28.7,17.4c2.6,11.5-5.3,23.8-16.7,26.6c-9.4,2.5-20-1.8-25-10.1c-3.4-5.3-4.3-12-2.7-18
		C160.9,933,167,926.8,174.4,924.6 M175.4,927.6c-9.1,2.5-15.6,12.1-14.1,21.6c1.2,9.9,10.8,17.8,20.8,17
		c11.3-0.5,20.4-12,18.1-23.1C198.4,932,186.2,924.2,175.4,927.6z"/>
	<path d="M233.4,924.6c13-4.3,28,5.9,29,19.5c1.7,12.5-8.9,24.8-21.5,25.2c-12,0.9-23.4-9.2-23.9-21.2
		C216.2,937.6,223.5,927.5,233.4,924.6 M234.5,927.6c-9.1,2.5-15.6,12.1-14.2,21.5c1.2,10.2,11.4,18.3,21.6,17
		c10.9-1,19.5-12.2,17.2-23C257.5,932,245.2,924.2,234.5,927.6z"/>
	<path d="M294.2,924.2c13-3.2,26.9,7.5,27.4,20.8c1.2,12.6-9.9,24.5-22.6,24.3c-11.6,0.4-22.3-9.6-22.9-21.2
		C275.1,937,283.4,926.3,294.2,924.2 M293.4,927.6c-7.6,2.2-13.6,9.3-14.1,17.2c-0.8,7.8,3.8,15.8,10.9,19.2
		c5.9,3.2,13.5,2.7,19.1-0.9c7.7-4.6,11.4-14.9,8.1-23.3C314.1,930.4,303,924.6,293.4,927.6z"/>
	<path d="M353.2,924.2c13-3.2,27,7.5,27.5,20.9c1.2,12.6-10.1,24.5-22.7,24.2c-12,0.3-22.8-10.3-22.8-22.3
		C334.7,936.3,342.8,926.3,353.2,924.2 M352.4,927.6c-8.7,2.4-15.1,11.4-14.2,20.5c0.6,9.2,8.5,17.2,17.7,18c9.5,1.1,19-5.9,21-15.2
		c1.8-7.3-1.2-15.4-7.1-19.9C365.1,927.2,358.4,925.8,352.4,927.6z"/>
	<path d="M412.2,924.2c11.1-2.6,23.1,4.6,26.5,15.4c2.6,7.8,0.4,16.9-5.4,22.7c-6.3,6.8-17,9-25.4,5.1c-7.7-3.2-13.2-11-13.7-19.4
		C393.2,937.1,401.4,926.4,412.2,924.2 M411.4,927.6c-7.6,2.2-13.5,9.3-14.1,17.2c-0.8,7.8,3.8,15.8,10.8,19.2
		c5.9,3.2,13.5,2.8,19.1-0.8c7.4-4.4,11.2-14.1,8.5-22.3C433,930.9,421.5,924.4,411.4,927.6z"/>
	<path d="M471.2,924.2c12.6-3.1,26.2,6.8,27.4,19.7c1.6,11.6-7.2,23.2-18.7,25c-9.2,1.8-19.2-3-23.7-11.2c-4-6.8-4.1-15.8,0-22.6
		C459.4,929.7,465,925.5,471.2,924.2 M470.4,927.6c-7.6,2.2-13.5,9.3-14,17.2c-0.7,7.5,3.4,15.2,10,18.8c6,3.6,14,3.4,19.9-0.4
		c7.9-4.6,11.6-15.3,8.1-23.8C490.9,930.2,479.9,924.6,470.4,927.6z"/>
	<path d="M528.4,924.7c12.7-4.2,27.3,5.1,29.1,18.3c2.1,11.5-6.2,23.5-17.7,25.8c-9.5,2.2-19.9-2.5-24.6-11c-3-5-3.7-11.3-2.3-17
		C514.9,933.2,521,927,528.4,924.7 M529.4,927.6c-8.9,2.6-15.3,12-14,21.3c1,9.6,9.9,17.4,19.5,17.3c9.6,0.2,18.4-7.7,19.5-17.2
		c1.1-7.8-3.1-15.9-9.9-19.7C540,926.8,534.4,926.2,529.4,927.6z"/>
	<path d="M589.2,924.2c12.6-3.2,26.4,6.7,27.5,19.7c1.7,11.5-7.1,23.1-18.5,25c-9.3,1.8-19.3-2.9-23.9-11.2c-4-6.8-4-15.7,0-22.5
		C577.4,929.7,582.9,925.6,589.2,924.2 M588.4,927.7c-7.3,2.2-13,8.8-13.9,16.4c-1.1,7.7,3,15.8,9.8,19.5c5.8,3.5,13.4,3.5,19.2,0.1
		c7.2-3.8,11.4-12.5,9.8-20.5C611.7,931.9,599.2,924,588.4,927.7z"/>
	<path d="M646.5,924.7c5.9-1.7,12.5-1.1,17.8,2c7.5,4.2,12.2,12.8,11.5,21.4c-0.5,10.5-9.4,19.8-19.8,21
		c-8.9,1.3-18.2-3.4-22.6-11.2c-4.1-6.8-4.1-15.9,0-22.7C636.2,930.2,641,926.4,646.5,924.7 M647.5,927.7
		c-8.9,2.6-15.3,12-13.9,21.2c1,9.2,9.2,16.9,18.5,17.3c9.4,0.7,18.5-6.4,20.3-15.6c1.8-8-2.1-16.7-9.1-20.8
		C658.6,926.8,652.7,926.1,647.5,927.7z"/>
	<path d="M705.4,924.7c13-4.5,28.1,5.5,29.3,19.2c1.9,12.7-9,25.2-21.8,25.4c-11.6,0.7-22.5-8.8-23.5-20.4
		C688.1,938.4,695.3,927.8,705.4,924.7 M706.5,927.7c-8.3,2.4-14.4,10.7-14,19.3c0.1,9.6,8.1,18.2,17.6,19.1
		c8.6,1.1,17.5-4.5,20.5-12.6c2.8-7.2,0.8-15.9-4.8-21.1C720.7,927.5,713.1,925.6,706.5,927.7z"/>
	<path d="M766.2,924.3c13-3.3,27.1,7.3,27.7,20.7c1.3,12.7-10.1,24.8-22.8,24.4c-12,0.2-22.7-10.4-22.7-22.3
		C747.9,936.4,755.9,926.5,766.2,924.3 M765.5,927.7c-7.2,2.2-12.9,8.8-13.8,16.4c-1.2,7.9,3.3,16.2,10.4,19.8
		c5.7,3.2,13,3.1,18.6-0.2c6.7-3.6,10.9-11.3,10.2-18.8C790.1,932.9,776.9,923.8,765.5,927.7z"/>
	<path d="M823.4,924.7c12.7-4.4,27.4,4.9,29.3,18c2.2,11.3-5.7,23.1-16.8,25.8c-9.5,2.6-20.3-1.8-25.2-10.4
		c-4.1-6.6-4.4-15.3-0.8-22.1C812.7,930.7,817.7,926.6,823.4,924.7 M824.4,927.7c-8.5,2.5-14.7,11.3-13.9,20.3
		c0.6,9.5,9,17.8,18.5,18.2c9.6,0.7,18.9-6.7,20.5-16.1c1.4-6.9-1.5-14.3-7-18.8C837.6,927.2,830.6,925.8,824.4,927.7z"/>
	<path d="M882.5,924.7c12.7-4.3,27.3,5,29.2,18.1c2.5,12.7-7.9,25.7-20.7,26.4c-11.9,1.2-23.4-8.5-24.4-20.3
		C865.2,938.4,872.4,927.8,882.5,924.7 M883.4,927.7c-8.8,2.6-15,12-13.7,21.1c1,9.1,9.1,16.8,18.3,17.3c8.3,0.6,16.6-4.8,19.5-12.5
		c3.2-7.7,0.6-17.1-5.9-22.3C896.7,927.2,889.6,925.8,883.4,927.7z"/>
	<path d="M941.5,924.7c6.1-1.8,13-1.2,18.4,2.2c7.9,4.6,12.4,14.2,10.9,23.1c-1.5,10.2-10.6,18.5-20.9,19.1
		c-8.6,0.8-17.4-4.1-21.5-11.6c-3.1-5.2-3.7-11.7-2-17.5C928.5,932.9,934.3,927,941.5,924.7 M942.5,927.7
		c-9.2,2.7-15.5,12.8-13.6,22.3c1.6,10.1,12.1,17.7,22.2,16c8.5-1.2,15.6-8.4,16.7-16.9c1.2-7.8-3-16-9.9-19.7
		C953.3,926.7,947.6,926.1,942.5,927.7z"/>
	<path d="M1000.5,924.7c12.6-4.4,27.4,4.9,29.3,18.1c2.5,12.7-8,25.8-20.8,26.4c-11.8,1.2-23.3-8.4-24.3-20.2
		C983.2,938.4,990.4,927.8,1000.5,924.7 M1001.5,927.7c-7.2,2.2-12.8,8.8-13.7,16.3c-1.1,7.7,3,15.7,9.8,19.5
		c5.6,3.3,12.9,3.5,18.6,0.5c6-3,10.2-9.2,10.7-15.9c0.7-7.3-3.2-14.7-9.5-18.4C1012.7,926.8,1006.8,926.1,1001.5,927.7z"/>
	<path d="M1059.5,924.8c13-4.6,28.3,5.5,29.4,19.2c1.8,12.4-8.5,24.7-20.9,25.3c-11.8,1.2-23.3-8.5-24.3-20.3
		C1042.3,938.4,1049.5,927.8,1059.5,924.8 M1060.5,927.7c-7.2,2.2-12.9,8.9-13.7,16.4c-1.1,7.7,3,15.7,9.7,19.4
		c5.6,3.4,12.9,3.6,18.6,0.5c6-3,10.3-9.2,10.8-15.9c0.7-7.5-3.5-15.1-10.1-18.7C1071.3,926.7,1065.6,926.1,1060.5,927.7z"/>
	<path d="M1121.2,924.1c12.9-2.8,26.4,7.8,26.9,20.9c1.2,12.8-10.3,24.8-23.1,24.3c-12.2,0.1-22.9-11.1-22.4-23.2
		C1102.6,935.6,1110.9,925.9,1121.2,924.1 M1119.5,927.7c-8.1,2.5-14.1,10.7-13.8,19.3c0.1,9.4,7.9,18,17.3,19
		c8.4,1.2,17-3.9,20.4-11.6c3.3-7.2,1.6-16.3-4-21.8C1134.3,927.5,1126.3,925.5,1119.5,927.7z"/>
</g>
<g id="_x23_0070c0ff">
</g>
<g id="_x23_030303ff">
	<path class="st3" d="M147.9,335.2c5.2-0.4,10.5-0.4,15.8-0.1c0.2,0.5,0.5,1.5,0.7,2c-2.3,0-4.5,0-6.8,0.1
		c-0.1,6.2,0.2,12.4-0.1,18.6c-0.6,0.1-1.9,0.4-2.5,0.5c-0.1-6.4,0-12.7,0-19.1C152.5,336.7,148.5,338.5,147.9,335.2z"/>
</g>
<g id="_x23_fdfdfdff">
	<path class="st4" d="M506.2,429.5c0.5-0.3,1.5-0.9,2-1.2c0.2,7,0.9,14.2-0.2,21.2c-0.5,0.3-1.5,0.9-2,1.1
		C505.9,443.6,505.2,436.5,506.2,429.5z"/>
</g>
<g id="_x23_fbfbfbff">
	<path class="st5" d="M531.2,429.6c0.5-0.3,1.6-1,2.1-1.4c0.4,5.7,0.6,11.5-0.1,17.2c-0.6,0.2-1.7,0.7-2.3,0.9
		C530.8,440.8,530.1,435.1,531.2,429.6z"/>
</g>
<g id="_x23_606060ff">
	<path class="st6" d="M2.9,1024.3c22.7-0.7,45.4-0.1,68-0.3c381.3,0,762.7,0,1144,0c9.7,0.2,19.5-0.5,29.2,0.4l0.4,0.6H2.8
		L2.9,1024.3z"/>
</g>
</svg>
