<?xml version="1.0" encoding="utf-8"?>
<!-- Generator: Adobe Illustrator 21.1.0, SVG Export Plug-In . SVG Version: 6.00 Build 0)  -->
<svg version="1.1"
	 id="svg8" xmlns:cc="http://creativecommons.org/ns#" xmlns:dc="http://purl.org/dc/elements/1.1/" xmlns:rdf="http://www.w3.org/1999/02/22-rdf-syntax-ns#" xmlns:svg="http://www.w3.org/2000/svg"
	 xmlns="http://www.w3.org/2000/svg" xmlns:xlink="http://www.w3.org/1999/xlink" x="0px" y="0px" viewBox="0 0 250 250"
	 style="enable-background:new 0 0 250 250;" xml:space="preserve">
<style type="text/css">
	.st0{fill:none;stroke:#000000;stroke-width:3;}
	.st1{fill:none;stroke:#000000;}
	.st2{fill:#0066CC;stroke:#000000;}
</style>
<path id="rect4487" class="st0" d="M15,5.9h220c5.5,0,10,4.5,10,10v220c0,5.5-4.5,10-10,10H15c-5.5,0-10-4.5-10-10v-220
	C5,10.3,9.5,5.9,15,5.9z"/>
<path id="rect4489" class="st1" d="M20,15h210c2.8,0,5,2.2,5,5v75c0,2.8-2.2,5-5,5H20c-2.8,0-5-2.2-5-5V20C15,17.2,17.2,15,20,15z"
	/>
<path id="rect4489-6" class="st1" d="M20,151h210c2.8,0,5,2.2,5,5v75c0,2.8-2.2,5-5,5H20c-2.8,0-5-2.2-5-5v-75
	C15,153.2,17.2,151,20,151z"/>
<path id="rect4506" class="st1" d="M19,103h212c2.2,0,4,1.8,4,4v37c0,2.2-1.8,4-4,4H19c-2.2,0-4-1.8-4-4v-37
	C15,104.8,16.8,103,19,103z"/>
<circle id="path4508" class="st2" cx="32" cy="34" r="6"/>
<circle id="path4508-1" class="st1" cx="220" cy="34" r="6"/>
<circle id="path4508-2" class="st1" cx="32" cy="170" r="6"/>
<circle id="path4508-5" class="st1" cx="220" cy="170" r="6"/>
</svg>
